<svg xmlns="http://www.w3.org/2000/svg" viewBox="0 0 164.85 112.94"><defs><style>.cls-1{opacity:0.5;}.cls-2{fill:#fff;}</style></defs><g id="Layer_2" data-name="Layer 2"><g id="Layer_1-2" data-name="Layer 1"><g class="cls-1"><path class="cls-2" d="M44.05,99.5l-.47,1.44,1.51.16c.69.07,1.4.16,2.13.28l1,.16.33-1a36.08,36.08,0,0,1,68.44.16l.34,1,1-.19c.72-.14,1.43-.25,2.11-.33L122,101l-.46-1.41a40.72,40.72,0,0,0-77.48-.11Z"/><path class="cls-2" d="M82.77,86.59A25.48,25.48,0,0,1,107,104.05l.44,1.33,1.26-.61c.65-.32,1.3-.62,1.93-.89l1-.44-.37-1.08A30.11,30.11,0,0,0,54.41,102l-.4,1.12,1.11.43c.65.26,1.31.54,2,.83l1.22.56.45-1.27A25.54,25.54,0,0,1,82.77,86.59Z"/><path class="cls-2" d="M66.42,110.48,68.09,112l.35-2.2a14.52,14.52,0,0,1,28.77.75l.26,2.44,1.79-1.68c.62-.58,1.26-1.14,1.89-1.66l.56-.47-.14-.71a19.15,19.15,0,0,0-37.44-.73l-.18.77.62.48C65.19,109.43,65.81,109.94,66.42,110.48Z"/><path class="cls-2" d="M86.91,63.82l-.47,1.44,1.51.16c.69.07,1.41.16,2.13.28l1,.16.33-1a36.08,36.08,0,0,1,68.44.16l.34,1,1.05-.19c.72-.14,1.43-.25,2.12-.34l1.46-.18-.45-1.41a40.73,40.73,0,0,0-77.49-.11Z"/><path class="cls-2" d="M99.93,68.65l1.22.55.45-1.26a25.48,25.48,0,0,1,48.22.43l.44,1.33,1.26-.62c.65-.31,1.3-.61,1.93-.88l1.06-.44-.37-1.08a30.12,30.12,0,0,0-56.87-.41l-.4,1.12,1.11.43C98.64,68.08,99.3,68.36,99.93,68.65Z"/><path class="cls-2" d="M109.28,74.8,111,76.27l.35-2.2a14.52,14.52,0,0,1,28.77.74l.26,2.45,1.8-1.68c.62-.59,1.25-1.15,1.88-1.66l.57-.47-.14-.71A19.16,19.16,0,0,0,107,72l-.18.77.62.48C108.05,73.74,108.67,74.26,109.28,74.8Z"/><path class="cls-2" d="M3.64,65.7l1,.16.33-1A36.08,36.08,0,0,1,73.44,65l.34,1,1-.19c.72-.14,1.43-.25,2.11-.34l1.47-.18L78,63.93A40.72,40.72,0,0,0,.47,63.82L0,65.26l1.51.16C2.2,65.49,2.91,65.58,3.64,65.7Z"/><path class="cls-2" d="M39.19,46.28a30.2,30.2,0,0,0-28.36,20l-.4,1.12,1.11.43c.66.26,1.32.54,2,.83l1.22.56.45-1.27a25.48,25.48,0,0,1,48.22.43l.44,1.33,1.26-.62c.65-.31,1.3-.61,1.93-.88l1-.44-.37-1.08A30.11,30.11,0,0,0,39.19,46.28Z"/><path class="cls-2" d="M53.63,74.81l.26,2.45,1.79-1.68c.63-.59,1.26-1.15,1.89-1.66l.56-.47L58,72.74A19.15,19.15,0,0,0,20.55,72l-.18.77.62.48c.62.48,1.24,1,1.85,1.54l1.67,1.47.35-2.2a14.52,14.52,0,0,1,28.77.74Z"/><path class="cls-2" d="M47.22,30l1,.16.33-1a36.08,36.08,0,0,1,68.44.16l.34,1,1-.19c.72-.14,1.43-.25,2.11-.34l1.47-.18-.46-1.41a40.72,40.72,0,0,0-77.48-.11l-.47,1.44,1.51.15C45.78,29.8,46.49,29.9,47.22,30Z"/><path class="cls-2" d="M57.07,33l1.22.55.45-1.26a25.48,25.48,0,0,1,48.22.43L107.4,34l1.26-.62c.64-.31,1.3-.61,1.93-.88l1-.44L111.27,31a30.11,30.11,0,0,0-56.86-.41L54,31.71l1.11.43C55.77,32.4,56.43,32.67,57.07,33Z"/><path class="cls-2" d="M66.42,39.12l1.67,1.47.35-2.2a14.52,14.52,0,0,1,28.77.74l.26,2.45,1.79-1.68c.62-.59,1.26-1.15,1.89-1.66l.56-.47-.14-.71a19.15,19.15,0,0,0-37.44-.73L64,37.1l.62.48C65.19,38.07,65.81,38.58,66.42,39.12Z"/></g></g></g></svg>