<svg xmlns="http://www.w3.org/2000/svg" xmlns:xlink="http://www.w3.org/1999/xlink" width="1600" zoomAndPan="magnify" viewBox="0 0 1200 1199.999942" height="1600" preserveAspectRatio="xMidYMid meet" version="1.0"><defs><g/><clipPath id="f6e899d142"><path d="M 332 394 L 869 394 L 869 821 L 332 821 Z M 332 394 " clip-rule="nonzero"/></clipPath><clipPath id="91ac50f66e"><path d="M 333.351562 301.511719 L 915.28125 353.554688 L 866.574219 898.132812 L 284.648438 846.085938 Z M 333.351562 301.511719 " clip-rule="nonzero"/></clipPath><clipPath id="304d9f5adb"><path d="M 333.351562 301.511719 L 915.28125 353.554688 L 866.574219 898.132812 L 284.648438 846.085938 Z M 333.351562 301.511719 " clip-rule="nonzero"/></clipPath><clipPath id="611c096452"><path d="M 333.351562 301.511719 L 915.28125 353.554688 L 866.574219 898.132812 L 284.648438 846.085938 Z M 333.351562 301.511719 " clip-rule="nonzero"/></clipPath><clipPath id="a4bd034cd2"><path d="M 353 411 L 848 411 L 848 805 L 353 805 Z M 353 411 " clip-rule="nonzero"/></clipPath><clipPath id="cac5d22385"><path d="M 333.351562 301.511719 L 915.28125 353.554688 L 866.574219 898.132812 L 284.648438 846.085938 Z M 333.351562 301.511719 " clip-rule="nonzero"/></clipPath><clipPath id="c5942f7139"><path d="M 333.351562 301.511719 L 915.28125 353.554688 L 866.574219 898.132812 L 284.648438 846.085938 Z M 333.351562 301.511719 " clip-rule="nonzero"/></clipPath><clipPath id="d578da7382"><path d="M 333.351562 301.511719 L 915.28125 353.554688 L 866.574219 898.132812 L 284.648438 846.085938 Z M 333.351562 301.511719 " clip-rule="nonzero"/></clipPath><clipPath id="f694f34095"><path d="M 455 405 L 496 405 L 496 458 L 455 458 Z M 455 405 " clip-rule="nonzero"/></clipPath><clipPath id="15a364939e"><path d="M 333.351562 301.511719 L 915.28125 353.554688 L 866.574219 898.132812 L 284.648438 846.085938 Z M 333.351562 301.511719 " clip-rule="nonzero"/></clipPath><clipPath id="43a76e4929"><path d="M 333.351562 301.511719 L 915.28125 353.554688 L 866.574219 898.132812 L 284.648438 846.085938 Z M 333.351562 301.511719 " clip-rule="nonzero"/></clipPath><clipPath id="011da4c3b6"><path d="M 333.351562 301.511719 L 915.28125 353.554688 L 866.574219 898.132812 L 284.648438 846.085938 Z M 333.351562 301.511719 " clip-rule="nonzero"/></clipPath><clipPath id="b267978d3c"><path d="M 475 338 L 505 338 L 505 407 L 475 407 Z M 475 338 " clip-rule="nonzero"/></clipPath><clipPath id="ab196bba85"><path d="M 333.351562 301.511719 L 915.28125 353.554688 L 866.574219 898.132812 L 284.648438 846.085938 Z M 333.351562 301.511719 " clip-rule="nonzero"/></clipPath><clipPath id="aa26a651d6"><path d="M 333.351562 301.511719 L 915.28125 353.554688 L 866.574219 898.132812 L 284.648438 846.085938 Z M 333.351562 301.511719 " clip-rule="nonzero"/></clipPath><clipPath id="cb5a0481d4"><path d="M 333.351562 301.511719 L 915.28125 353.554688 L 866.574219 898.132812 L 284.648438 846.085938 Z M 333.351562 301.511719 " clip-rule="nonzero"/></clipPath><clipPath id="d9f68ff933"><path d="M 655 338 L 687 338 L 687 426 L 655 426 Z M 655 338 " clip-rule="nonzero"/></clipPath><clipPath id="6ce98db35c"><path d="M 333.351562 301.511719 L 915.28125 353.554688 L 866.574219 898.132812 L 284.648438 846.085938 Z M 333.351562 301.511719 " clip-rule="nonzero"/></clipPath><clipPath id="63e0ca4efb"><path d="M 333.351562 301.511719 L 915.28125 353.554688 L 866.574219 898.132812 L 284.648438 846.085938 Z M 333.351562 301.511719 " clip-rule="nonzero"/></clipPath><clipPath id="ff3b208565"><path d="M 333.351562 301.511719 L 915.28125 353.554688 L 866.574219 898.132812 L 284.648438 846.085938 Z M 333.351562 301.511719 " clip-rule="nonzero"/></clipPath><clipPath id="3f04dd21e7"><path d="M 647 331 L 675 331 L 675 432 L 647 432 Z M 647 331 " clip-rule="nonzero"/></clipPath><clipPath id="b834ecc44b"><path d="M 333.351562 301.511719 L 915.28125 353.554688 L 866.574219 898.132812 L 284.648438 846.085938 Z M 333.351562 301.511719 " clip-rule="nonzero"/></clipPath><clipPath id="15b3dd44d5"><path d="M 333.351562 301.511719 L 915.28125 353.554688 L 866.574219 898.132812 L 284.648438 846.085938 Z M 333.351562 301.511719 " clip-rule="nonzero"/></clipPath><clipPath id="c6bcb7b734"><path d="M 333.351562 301.511719 L 915.28125 353.554688 L 866.574219 898.132812 L 284.648438 846.085938 Z M 333.351562 301.511719 " clip-rule="nonzero"/></clipPath><clipPath id="60fab8ee1b"><path d="M 763 405 L 824 405 L 824 458 L 763 458 Z M 763 405 " clip-rule="nonzero"/></clipPath><clipPath id="326aad3bf2"><path d="M 333.351562 301.511719 L 915.28125 353.554688 L 866.574219 898.132812 L 284.648438 846.085938 Z M 333.351562 301.511719 " clip-rule="nonzero"/></clipPath><clipPath id="ccc81b9800"><path d="M 333.351562 301.511719 L 915.28125 353.554688 L 866.574219 898.132812 L 284.648438 846.085938 Z M 333.351562 301.511719 " clip-rule="nonzero"/></clipPath><clipPath id="3580811cba"><path d="M 333.351562 301.511719 L 915.28125 353.554688 L 866.574219 898.132812 L 284.648438 846.085938 Z M 333.351562 301.511719 " clip-rule="nonzero"/></clipPath><clipPath id="6ef7180d2e"><path d="M 696 756 L 747 756 L 747 837 L 696 837 Z M 696 756 " clip-rule="nonzero"/></clipPath><clipPath id="c84e5c3179"><path d="M 333.351562 301.511719 L 915.28125 353.554688 L 866.574219 898.132812 L 284.648438 846.085938 Z M 333.351562 301.511719 " clip-rule="nonzero"/></clipPath><clipPath id="18d93c931b"><path d="M 333.351562 301.511719 L 915.28125 353.554688 L 866.574219 898.132812 L 284.648438 846.085938 Z M 333.351562 301.511719 " clip-rule="nonzero"/></clipPath><clipPath id="acf6683006"><path d="M 333.351562 301.511719 L 915.28125 353.554688 L 866.574219 898.132812 L 284.648438 846.085938 Z M 333.351562 301.511719 " clip-rule="nonzero"/></clipPath><clipPath id="a8a196952c"><path d="M 813 691 L 883 691 L 883 721 L 813 721 Z M 813 691 " clip-rule="nonzero"/></clipPath><clipPath id="28bcead342"><path d="M 333.351562 301.511719 L 915.28125 353.554688 L 866.574219 898.132812 L 284.648438 846.085938 Z M 333.351562 301.511719 " clip-rule="nonzero"/></clipPath><clipPath id="7b1b10d1ed"><path d="M 333.351562 301.511719 L 915.28125 353.554688 L 866.574219 898.132812 L 284.648438 846.085938 Z M 333.351562 301.511719 " clip-rule="nonzero"/></clipPath><clipPath id="23f94fa3f7"><path d="M 333.351562 301.511719 L 915.28125 353.554688 L 866.574219 898.132812 L 284.648438 846.085938 Z M 333.351562 301.511719 " clip-rule="nonzero"/></clipPath><clipPath id="398248ca83"><path d="M 713 731 L 803 731 L 803 831 L 713 831 Z M 713 731 " clip-rule="nonzero"/></clipPath><clipPath id="850be6a484"><path d="M 333.351562 301.511719 L 915.28125 353.554688 L 866.574219 898.132812 L 284.648438 846.085938 Z M 333.351562 301.511719 " clip-rule="nonzero"/></clipPath><clipPath id="73058896a7"><path d="M 333.351562 301.511719 L 915.28125 353.554688 L 866.574219 898.132812 L 284.648438 846.085938 Z M 333.351562 301.511719 " clip-rule="nonzero"/></clipPath><clipPath id="a009774356"><path d="M 333.351562 301.511719 L 915.28125 353.554688 L 866.574219 898.132812 L 284.648438 846.085938 Z M 333.351562 301.511719 " clip-rule="nonzero"/></clipPath><clipPath id="50e26d43f0"><path d="M 734 737 L 784 737 L 784 785 L 734 785 Z M 734 737 " clip-rule="nonzero"/></clipPath><clipPath id="e74285f531"><path d="M 333.351562 301.511719 L 915.28125 353.554688 L 866.574219 898.132812 L 284.648438 846.085938 Z M 333.351562 301.511719 " clip-rule="nonzero"/></clipPath><clipPath id="fb49f0a598"><path d="M 333.351562 301.511719 L 915.28125 353.554688 L 866.574219 898.132812 L 284.648438 846.085938 Z M 333.351562 301.511719 " clip-rule="nonzero"/></clipPath><clipPath id="711079906d"><path d="M 333.351562 301.511719 L 915.28125 353.554688 L 866.574219 898.132812 L 284.648438 846.085938 Z M 333.351562 301.511719 " clip-rule="nonzero"/></clipPath><clipPath id="e035e90dcf"><path d="M 591 768 L 596 768 L 596 874 L 591 874 Z M 591 768 " clip-rule="nonzero"/></clipPath><clipPath id="782821809b"><path d="M 333.351562 301.511719 L 915.28125 353.554688 L 866.574219 898.132812 L 284.648438 846.085938 Z M 333.351562 301.511719 " clip-rule="nonzero"/></clipPath><clipPath id="b94ada27a3"><path d="M 333.351562 301.511719 L 915.28125 353.554688 L 866.574219 898.132812 L 284.648438 846.085938 Z M 333.351562 301.511719 " clip-rule="nonzero"/></clipPath><clipPath id="71c6222768"><path d="M 333.351562 301.511719 L 915.28125 353.554688 L 866.574219 898.132812 L 284.648438 846.085938 Z M 333.351562 301.511719 " clip-rule="nonzero"/></clipPath><clipPath id="3eb16e27c9"><path d="M 570 771 L 581 771 L 581 838 L 570 838 Z M 570 771 " clip-rule="nonzero"/></clipPath><clipPath id="a505b74c12"><path d="M 333.351562 301.511719 L 915.28125 353.554688 L 866.574219 898.132812 L 284.648438 846.085938 Z M 333.351562 301.511719 " clip-rule="nonzero"/></clipPath><clipPath id="0c3721a5fe"><path d="M 333.351562 301.511719 L 915.28125 353.554688 L 866.574219 898.132812 L 284.648438 846.085938 Z M 333.351562 301.511719 " clip-rule="nonzero"/></clipPath><clipPath id="9f601333b7"><path d="M 333.351562 301.511719 L 915.28125 353.554688 L 866.574219 898.132812 L 284.648438 846.085938 Z M 333.351562 301.511719 " clip-rule="nonzero"/></clipPath><clipPath id="ca984022b8"><path d="M 383 756 L 457 756 L 457 844 L 383 844 Z M 383 756 " clip-rule="nonzero"/></clipPath><clipPath id="362d80876c"><path d="M 333.351562 301.511719 L 915.28125 353.554688 L 866.574219 898.132812 L 284.648438 846.085938 Z M 333.351562 301.511719 " clip-rule="nonzero"/></clipPath><clipPath id="e6c6ca2d76"><path d="M 333.351562 301.511719 L 915.28125 353.554688 L 866.574219 898.132812 L 284.648438 846.085938 Z M 333.351562 301.511719 " clip-rule="nonzero"/></clipPath><clipPath id="82337fbb1f"><path d="M 333.351562 301.511719 L 915.28125 353.554688 L 866.574219 898.132812 L 284.648438 846.085938 Z M 333.351562 301.511719 " clip-rule="nonzero"/></clipPath><clipPath id="0b651ec1b1"><path d="M 300 700 L 366 700 L 366 731 L 300 731 Z M 300 700 " clip-rule="nonzero"/></clipPath><clipPath id="472fd33a8f"><path d="M 333.351562 301.511719 L 915.28125 353.554688 L 866.574219 898.132812 L 284.648438 846.085938 Z M 333.351562 301.511719 " clip-rule="nonzero"/></clipPath><clipPath id="f220811265"><path d="M 333.351562 301.511719 L 915.28125 353.554688 L 866.574219 898.132812 L 284.648438 846.085938 Z M 333.351562 301.511719 " clip-rule="nonzero"/></clipPath><clipPath id="ff50661dd9"><path d="M 333.351562 301.511719 L 915.28125 353.554688 L 866.574219 898.132812 L 284.648438 846.085938 Z M 333.351562 301.511719 " clip-rule="nonzero"/></clipPath><clipPath id="6c5c4f22e4"><path d="M 315 506 L 391 506 L 391 537 L 315 537 Z M 315 506 " clip-rule="nonzero"/></clipPath><clipPath id="4743326486"><path d="M 333.351562 301.511719 L 915.28125 353.554688 L 866.574219 898.132812 L 284.648438 846.085938 Z M 333.351562 301.511719 " clip-rule="nonzero"/></clipPath><clipPath id="573d694248"><path d="M 333.351562 301.511719 L 915.28125 353.554688 L 866.574219 898.132812 L 284.648438 846.085938 Z M 333.351562 301.511719 " clip-rule="nonzero"/></clipPath><clipPath id="86f3d71a8d"><path d="M 333.351562 301.511719 L 915.28125 353.554688 L 866.574219 898.132812 L 284.648438 846.085938 Z M 333.351562 301.511719 " clip-rule="nonzero"/></clipPath><clipPath id="be3f5d9d83"><path d="M 318 466 L 375 466 L 375 500 L 318 500 Z M 318 466 " clip-rule="nonzero"/></clipPath><clipPath id="9286e2bca6"><path d="M 333.351562 301.511719 L 915.28125 353.554688 L 866.574219 898.132812 L 284.648438 846.085938 Z M 333.351562 301.511719 " clip-rule="nonzero"/></clipPath><clipPath id="bcb0de71b0"><path d="M 333.351562 301.511719 L 915.28125 353.554688 L 866.574219 898.132812 L 284.648438 846.085938 Z M 333.351562 301.511719 " clip-rule="nonzero"/></clipPath><clipPath id="c4c430a4e8"><path d="M 333.351562 301.511719 L 915.28125 353.554688 L 866.574219 898.132812 L 284.648438 846.085938 Z M 333.351562 301.511719 " clip-rule="nonzero"/></clipPath><clipPath id="30905488f7"><path d="M 427 320 L 512 320 L 512 456 L 427 456 Z M 427 320 " clip-rule="nonzero"/></clipPath><clipPath id="5d709ec1ef"><path d="M 333.351562 301.511719 L 915.28125 353.554688 L 866.574219 898.132812 L 284.648438 846.085938 Z M 333.351562 301.511719 " clip-rule="nonzero"/></clipPath><clipPath id="cc609cddd4"><path d="M 333.351562 301.511719 L 915.28125 353.554688 L 866.574219 898.132812 L 284.648438 846.085938 Z M 333.351562 301.511719 " clip-rule="nonzero"/></clipPath><clipPath id="156c0b0646"><path d="M 333.351562 301.511719 L 915.28125 353.554688 L 866.574219 898.132812 L 284.648438 846.085938 Z M 333.351562 301.511719 " clip-rule="nonzero"/></clipPath><clipPath id="548d102bcd"><path d="M 810 426 L 850 426 L 850 470 L 810 470 Z M 810 426 " clip-rule="nonzero"/></clipPath><clipPath id="47bc39ad10"><path d="M 333.351562 301.511719 L 915.28125 353.554688 L 866.574219 898.132812 L 284.648438 846.085938 Z M 333.351562 301.511719 " clip-rule="nonzero"/></clipPath><clipPath id="107d829f43"><path d="M 333.351562 301.511719 L 915.28125 353.554688 L 866.574219 898.132812 L 284.648438 846.085938 Z M 333.351562 301.511719 " clip-rule="nonzero"/></clipPath><clipPath id="a74c8d9191"><path d="M 333.351562 301.511719 L 915.28125 353.554688 L 866.574219 898.132812 L 284.648438 846.085938 Z M 333.351562 301.511719 " clip-rule="nonzero"/></clipPath><clipPath id="f2c8625015"><path d="M 809 425 L 852 425 L 852 470 L 809 470 Z M 809 425 " clip-rule="nonzero"/></clipPath><clipPath id="66977d83e7"><path d="M 333.351562 301.511719 L 915.28125 353.554688 L 866.574219 898.132812 L 284.648438 846.085938 Z M 333.351562 301.511719 " clip-rule="nonzero"/></clipPath><clipPath id="2f07e3b796"><path d="M 333.351562 301.511719 L 915.28125 353.554688 L 866.574219 898.132812 L 284.648438 846.085938 Z M 333.351562 301.511719 " clip-rule="nonzero"/></clipPath><clipPath id="384cba34a0"><path d="M 333.351562 301.511719 L 915.28125 353.554688 L 866.574219 898.132812 L 284.648438 846.085938 Z M 333.351562 301.511719 " clip-rule="nonzero"/></clipPath><clipPath id="1ae76c1ae1"><path d="M 410 417 L 454 417 L 454 457 L 410 457 Z M 410 417 " clip-rule="nonzero"/></clipPath><clipPath id="b10bf0c43a"><path d="M 333.351562 301.511719 L 915.28125 353.554688 L 866.574219 898.132812 L 284.648438 846.085938 Z M 333.351562 301.511719 " clip-rule="nonzero"/></clipPath><clipPath id="57a42573c8"><path d="M 333.351562 301.511719 L 915.28125 353.554688 L 866.574219 898.132812 L 284.648438 846.085938 Z M 333.351562 301.511719 " clip-rule="nonzero"/></clipPath><clipPath id="9f60b8d7cd"><path d="M 333.351562 301.511719 L 915.28125 353.554688 L 866.574219 898.132812 L 284.648438 846.085938 Z M 333.351562 301.511719 " clip-rule="nonzero"/></clipPath><clipPath id="be95f8821f"><path d="M 409 415 L 454 415 L 454 458 L 409 458 Z M 409 415 " clip-rule="nonzero"/></clipPath><clipPath id="fd4c3f5bb3"><path d="M 333.351562 301.511719 L 915.28125 353.554688 L 866.574219 898.132812 L 284.648438 846.085938 Z M 333.351562 301.511719 " clip-rule="nonzero"/></clipPath><clipPath id="87f008e291"><path d="M 333.351562 301.511719 L 915.28125 353.554688 L 866.574219 898.132812 L 284.648438 846.085938 Z M 333.351562 301.511719 " clip-rule="nonzero"/></clipPath><clipPath id="413ec2daf8"><path d="M 333.351562 301.511719 L 915.28125 353.554688 L 866.574219 898.132812 L 284.648438 846.085938 Z M 333.351562 301.511719 " clip-rule="nonzero"/></clipPath><clipPath id="1a51dff90e"><path d="M 309 740 L 360 740 L 360 796 L 309 796 Z M 309 740 " clip-rule="nonzero"/></clipPath><clipPath id="ec4d36a539"><path d="M 333.351562 301.511719 L 915.28125 353.554688 L 866.574219 898.132812 L 284.648438 846.085938 Z M 333.351562 301.511719 " clip-rule="nonzero"/></clipPath><clipPath id="cd5b2038be"><path d="M 333.351562 301.511719 L 915.28125 353.554688 L 866.574219 898.132812 L 284.648438 846.085938 Z M 333.351562 301.511719 " clip-rule="nonzero"/></clipPath><clipPath id="12ac9d7d99"><path d="M 333.351562 301.511719 L 915.28125 353.554688 L 866.574219 898.132812 L 284.648438 846.085938 Z M 333.351562 301.511719 " clip-rule="nonzero"/></clipPath><clipPath id="4ddd4c5896"><path d="M 307 740 L 361 740 L 361 797 L 307 797 Z M 307 740 " clip-rule="nonzero"/></clipPath><clipPath id="d1df0b2d29"><path d="M 333.351562 301.511719 L 915.28125 353.554688 L 866.574219 898.132812 L 284.648438 846.085938 Z M 333.351562 301.511719 " clip-rule="nonzero"/></clipPath><clipPath id="2f3e056abd"><path d="M 333.351562 301.511719 L 915.28125 353.554688 L 866.574219 898.132812 L 284.648438 846.085938 Z M 333.351562 301.511719 " clip-rule="nonzero"/></clipPath><clipPath id="6dce3dc63b"><path d="M 333.351562 301.511719 L 915.28125 353.554688 L 866.574219 898.132812 L 284.648438 846.085938 Z M 333.351562 301.511719 " clip-rule="nonzero"/></clipPath><clipPath id="9d30f2b2b4"><path d="M 381 766 L 404 766 L 404 793 L 381 793 Z M 381 766 " clip-rule="nonzero"/></clipPath><clipPath id="e50e2090f0"><path d="M 333.351562 301.511719 L 915.28125 353.554688 L 866.574219 898.132812 L 284.648438 846.085938 Z M 333.351562 301.511719 " clip-rule="nonzero"/></clipPath><clipPath id="17a8545cc9"><path d="M 333.351562 301.511719 L 915.28125 353.554688 L 866.574219 898.132812 L 284.648438 846.085938 Z M 333.351562 301.511719 " clip-rule="nonzero"/></clipPath><clipPath id="5a375cccbb"><path d="M 333.351562 301.511719 L 915.28125 353.554688 L 866.574219 898.132812 L 284.648438 846.085938 Z M 333.351562 301.511719 " clip-rule="nonzero"/></clipPath><clipPath id="c3826dad22"><path d="M 380 766 L 404 766 L 404 793 L 380 793 Z M 380 766 " clip-rule="nonzero"/></clipPath><clipPath id="9bd308dd4b"><path d="M 333.351562 301.511719 L 915.28125 353.554688 L 866.574219 898.132812 L 284.648438 846.085938 Z M 333.351562 301.511719 " clip-rule="nonzero"/></clipPath><clipPath id="3918913abb"><path d="M 333.351562 301.511719 L 915.28125 353.554688 L 866.574219 898.132812 L 284.648438 846.085938 Z M 333.351562 301.511719 " clip-rule="nonzero"/></clipPath><clipPath id="13be0685c9"><path d="M 333.351562 301.511719 L 915.28125 353.554688 L 866.574219 898.132812 L 284.648438 846.085938 Z M 333.351562 301.511719 " clip-rule="nonzero"/></clipPath></defs><g clip-path="url(#f6e899d142)"><g clip-path="url(#91ac50f66e)"><g clip-path="url(#304d9f5adb)"><g clip-path="url(#611c096452)"><path fill="#100f0d" d="M 868.535156 546.023438 C 815.492188 579.8125 809.464844 601.382812 868.082031 627.402344 C 780.597656 642.71875 757.761719 662.480469 814.421875 727.003906 C 699.957031 696.125 664.996094 710.011719 649.871094 820.945312 C 587.632812 727.851562 550.113281 730.6875 460.765625 808.578125 C 483.398438 725.765625 454.207031 718 368.859375 742.550781 C 410.132812 693.496094 395.257812 676.738281 332.769531 669.609375 C 385.804688 635.828125 391.832031 614.257812 333.222656 588.238281 C 420.699219 572.917969 443.542969 553.15625 386.878906 488.628906 C 501.34375 519.511719 536.308594 505.625 551.425781 394.691406 C 613.671875 487.78125 651.1875 484.953125 740.53125 407.054688 C 717.898438 489.875 747.09375 497.632812 832.445312 473.085938 C 791.164062 522.144531 806.046875 538.898438 868.535156 546.023438 " fill-opacity="1" fill-rule="evenodd"/></g></g></g></g><g clip-path="url(#a4bd034cd2)"><g clip-path="url(#cac5d22385)"><g clip-path="url(#c5942f7139)"><g clip-path="url(#d578da7382)"><path fill="#ffffff" d="M 847.636719 550.847656 C 798.726562 581.996094 793.175781 601.882812 847.214844 625.875 C 766.5625 639.992188 745.5 658.210938 797.742188 717.707031 C 692.207031 689.234375 659.96875 702.035156 646.03125 804.320312 C 588.644531 718.492188 554.054688 721.101562 471.683594 792.914062 C 492.546875 716.5625 465.632812 709.402344 386.945312 732.035156 C 425 686.804688 411.277344 671.359375 353.667969 664.785156 C 402.570312 633.640625 408.128906 613.75 354.089844 589.765625 C 434.742188 575.640625 455.796875 557.425781 403.554688 497.929688 C 509.089844 526.402344 541.328125 513.597656 555.265625 411.320312 C 612.652344 497.152344 647.246094 494.535156 729.617188 422.722656 C 708.75 499.078125 735.671875 506.230469 814.355469 483.597656 C 776.300781 528.828125 790.019531 544.277344 847.636719 550.847656 " fill-opacity="1" fill-rule="evenodd"/></g></g></g></g><g clip-path="url(#f694f34095)"><g clip-path="url(#15a364939e)"><g clip-path="url(#43a76e4929)"><g clip-path="url(#011da4c3b6)"><path fill="#666364" d="M 495.355469 457.402344 L 455.128906 407.578125 L 458.550781 405.003906 L 495.355469 457.402344 " fill-opacity="1" fill-rule="nonzero"/></g></g></g></g><g clip-path="url(#b267978d3c)"><g clip-path="url(#ab196bba85)"><g clip-path="url(#aa26a651d6)"><g clip-path="url(#cb5a0481d4)"><path fill="#666364" d="M 504.1875 406.097656 L 475.902344 340.023438 L 479.886719 338.460938 L 504.1875 406.097656 " fill-opacity="1" fill-rule="nonzero"/></g></g></g></g><g clip-path="url(#d9f68ff933)"><g clip-path="url(#6ce98db35c)"><g clip-path="url(#63e0ca4efb)"><g clip-path="url(#ff3b208565)"><path fill="#666364" d="M 655.226562 425.921875 L 681.949219 338.675781 L 686.214844 339.054688 L 655.226562 425.921875 " fill-opacity="1" fill-rule="nonzero"/></g></g></g></g><g clip-path="url(#3f04dd21e7)"><g clip-path="url(#b834ecc44b)"><g clip-path="url(#15b3dd44d5)"><g clip-path="url(#c6bcb7b734)"><path fill="#666364" d="M 647.808594 431.257812 L 670.824219 331.675781 L 674.972656 332.730469 L 647.808594 431.257812 " fill-opacity="1" fill-rule="nonzero"/></g></g></g></g><g clip-path="url(#60fab8ee1b)"><g clip-path="url(#326aad3bf2)"><g clip-path="url(#ccc81b9800)"><g clip-path="url(#3580811cba)"><path fill="#666364" d="M 763.484375 457.449219 L 820.300781 405.792969 L 823.089844 409.027344 L 763.484375 457.449219 " fill-opacity="1" fill-rule="nonzero"/></g></g></g></g><g clip-path="url(#6ef7180d2e)"><g clip-path="url(#c84e5c3179)"><g clip-path="url(#18d93c931b)"><g clip-path="url(#acf6683006)"><path fill="#666364" d="M 742.417969 836.160156 L 696.847656 756.851562 L 746.082031 833.949219 L 742.417969 836.160156 " fill-opacity="1" fill-rule="nonzero"/></g></g></g></g><g clip-path="url(#a8a196952c)"><g clip-path="url(#28bcead342)"><g clip-path="url(#7b1b10d1ed)"><g clip-path="url(#23f94fa3f7)"><path fill="#666364" d="M 880.851562 720.742188 L 813.101562 691.824219 L 882.414062 716.757812 L 880.851562 720.742188 " fill-opacity="1" fill-rule="nonzero"/></g></g></g></g><g clip-path="url(#398248ca83)"><g clip-path="url(#850be6a484)"><g clip-path="url(#73058896a7)"><g clip-path="url(#a009774356)"><path fill="#666364" d="M 798.882812 830.964844 L 713.652344 731.894531 L 802.085938 828.125 L 798.882812 830.964844 " fill-opacity="1" fill-rule="nonzero"/></g></g></g></g><g clip-path="url(#50e26d43f0)"><g clip-path="url(#e74285f531)"><g clip-path="url(#fb49f0a598)"><g clip-path="url(#711079906d)"><path fill="#666364" d="M 780.082031 784.769531 L 734.832031 737.050781 L 783.09375 781.722656 L 780.082031 784.769531 " fill-opacity="1" fill-rule="nonzero"/></g></g></g></g><g clip-path="url(#e035e90dcf)"><g clip-path="url(#782821809b)"><g clip-path="url(#b94ada27a3)"><g clip-path="url(#71c6222768)"><path fill="#666364" d="M 591.546875 873.550781 L 592.726562 768.539062 L 595.828125 873.507812 L 591.546875 873.550781 " fill-opacity="1" fill-rule="nonzero"/></g></g></g></g><g clip-path="url(#3eb16e27c9)"><g clip-path="url(#a505b74c12)"><g clip-path="url(#0c3721a5fe)"><g clip-path="url(#9f601333b7)"><path fill="#666364" d="M 574.914062 837.878906 L 570.660156 837.398438 L 580.265625 771.339844 L 574.914062 837.878906 " fill-opacity="1" fill-rule="nonzero"/></g></g></g></g><g clip-path="url(#ca984022b8)"><g clip-path="url(#362d80876c)"><g clip-path="url(#e6c6ca2d76)"><g clip-path="url(#82337fbb1f)"><path fill="#666364" d="M 386.566406 843.34375 L 383.289062 840.589844 L 456.914062 756.429688 L 386.566406 843.34375 " fill-opacity="1" fill-rule="nonzero"/></g></g></g></g><g clip-path="url(#0b651ec1b1)"><g clip-path="url(#472fd33a8f)"><g clip-path="url(#f220811265)"><g clip-path="url(#ff50661dd9)"><path fill="#666364" d="M 302.625 730.488281 L 300.902344 726.5625 L 365.136719 700.722656 L 302.625 730.488281 " fill-opacity="1" fill-rule="nonzero"/></g></g></g></g><g clip-path="url(#6c5c4f22e4)"><g clip-path="url(#4743326486)"><g clip-path="url(#573d694248)"><g clip-path="url(#86f3d71a8d)"><path fill="#666364" d="M 390.039062 536.90625 L 315.183594 510.507812 L 316.714844 506.515625 L 390.039062 536.90625 " fill-opacity="1" fill-rule="nonzero"/></g></g></g></g><g clip-path="url(#be3f5d9d83)"><g clip-path="url(#9286e2bca6)"><g clip-path="url(#bcb0de71b0)"><g clip-path="url(#c4c430a4e8)"><path fill="#666364" d="M 374.945312 499.300781 L 318.480469 470.457031 L 320.554688 466.722656 L 374.945312 499.300781 " fill-opacity="1" fill-rule="nonzero"/></g></g></g></g><g clip-path="url(#30905488f7)"><g clip-path="url(#5d709ec1ef)"><g clip-path="url(#cc609cddd4)"><g clip-path="url(#156c0b0646)"><path fill="#666364" d="M 511.355469 455.671875 L 427.253906 322.738281 L 430.902344 320.503906 L 511.355469 455.671875 " fill-opacity="1" fill-rule="nonzero"/></g></g></g></g><g clip-path="url(#548d102bcd)"><g clip-path="url(#47bc39ad10)"><g clip-path="url(#107d829f43)"><g clip-path="url(#a74c8d9191)"><path fill="#f4d906" d="M 829.679688 469.683594 L 825.496094 453.238281 L 810.449219 451.851562 L 822.914062 443.074219 L 818.734375 426.628906 L 830.621094 437.648438 L 843.082031 428.875 L 837.960938 444.457031 L 849.84375 455.476562 L 834.796875 454.097656 L 829.679688 469.683594 " fill-opacity="1" fill-rule="evenodd"/></g></g></g></g><g clip-path="url(#f2c8625015)"><g clip-path="url(#66977d83e7)"><g clip-path="url(#2f07e3b796)"><g clip-path="url(#384cba34a0)"><path fill="#191716" d="M 829.6875 469.496094 C 830.464844 466.925781 831.265625 464.367188 832.058594 461.808594 C 832.863281 459.1875 833.695312 456.578125 834.519531 453.964844 L 834.589844 453.742188 L 834.8125 453.761719 L 842.335938 454.355469 L 849.859375 454.992188 L 849.578125 455.855469 L 843.597656 450.390625 L 837.648438 444.894531 L 837.359375 444.621094 L 837.480469 444.238281 L 840.027344 436.441406 L 842.605469 428.652344 L 843.363281 429.359375 C 841.28125 430.8125 839.207031 432.269531 837.113281 433.710938 C 835.023438 435.152344 832.9375 436.601562 830.84375 438.03125 L 830.597656 438.191406 L 830.371094 437.984375 L 818.523438 426.917969 L 819.054688 426.546875 L 823.183594 443.003906 L 823.234375 443.226562 L 823.074219 443.339844 L 810.566406 452.054688 L 810.460938 451.625 L 825.503906 453.097656 L 825.597656 453.105469 L 825.625 453.203125 Z M 829.671875 469.855469 L 825.375 453.269531 L 825.496094 453.382812 L 810.445312 452.085938 L 809.808594 452.03125 L 810.332031 451.652344 L 822.757812 442.808594 L 822.648438 443.144531 L 818.410156 426.710938 L 818.117188 425.582031 L 818.941406 426.339844 L 830.863281 437.308594 L 830.398438 437.269531 C 832.449219 435.769531 834.519531 434.292969 836.585938 432.808594 C 838.648438 431.320312 840.726562 429.859375 842.796875 428.382812 L 844.085938 427.464844 L 843.554688 429.089844 L 841.015625 436.890625 L 838.445312 444.679688 L 838.273438 444.027344 L 844.207031 449.542969 L 850.121094 455.101562 L 851.1875 456.109375 L 849.835938 455.972656 L 842.3125 455.222656 L 834.789062 454.425781 L 835.082031 454.222656 C 834.191406 456.808594 833.320312 459.398438 832.417969 461.96875 C 831.523438 464.554688 830.636719 467.132812 829.722656 469.707031 L 829.671875 469.855469 " fill-opacity="1" fill-rule="nonzero"/></g></g></g></g><g clip-path="url(#1ae76c1ae1)"><g clip-path="url(#b10bf0c43a)"><g clip-path="url(#57a42573c8)"><g clip-path="url(#9f60b8d7cd)"><path fill="#f4d906" d="M 453.078125 436.796875 L 436.738281 441.390625 L 435.742188 456.464844 L 426.636719 444.234375 L 410.296875 448.832031 L 421.015625 436.679688 L 411.914062 424.445312 L 427.636719 429.164062 L 438.347656 417 L 437.351562 432.078125 L 453.078125 436.796875 " fill-opacity="1" fill-rule="evenodd"/></g></g></g></g><g clip-path="url(#be95f8821f)"><g clip-path="url(#fd4c3f5bb3)"><g clip-path="url(#87f008e291)"><g clip-path="url(#413ec2daf8)"><path fill="#191716" d="M 452.890625 436.796875 C 450.300781 436.078125 447.71875 435.34375 445.132812 434.617188 C 442.492188 433.878906 439.863281 433.113281 437.234375 432.355469 L 437.007812 432.296875 L 437.019531 432.074219 L 437.417969 424.539062 L 437.855469 417.007812 L 438.726562 417.269531 L 433.421875 423.375 L 428.074219 429.46875 L 427.8125 429.769531 L 427.425781 429.648438 L 419.558594 427.304688 L 411.703125 424.929688 L 412.386719 424.152344 C 413.894531 426.195312 415.414062 428.234375 416.90625 430.285156 C 418.402344 432.339844 419.90625 434.382812 421.386719 436.445312 L 421.5625 436.683594 L 421.359375 436.914062 L 410.589844 449.03125 L 410.203125 448.511719 L 426.558594 443.96875 L 426.785156 443.90625 L 426.902344 444.074219 L 435.9375 456.339844 L 435.507812 456.460938 L 436.59375 441.386719 L 436.601562 441.296875 L 436.703125 441.269531 Z M 453.25 436.792969 L 436.773438 441.515625 L 436.882812 441.390625 L 435.972656 456.46875 L 435.933594 457.101562 L 435.542969 456.585938 L 426.375 444.394531 L 426.714844 444.5 L 410.390625 449.160156 L 409.273438 449.480469 L 410.007812 448.640625 L 420.667969 436.441406 L 420.640625 436.90625 C 419.085938 434.890625 417.554688 432.863281 416.015625 430.839844 C 414.472656 428.820312 412.960938 426.777344 411.433594 424.746094 L 410.476562 423.480469 L 412.121094 423.964844 L 419.988281 426.308594 L 427.84375 428.675781 L 427.195312 428.855469 L 432.5625 422.789062 L 437.964844 416.742188 L 438.945312 415.648438 L 438.839844 417.007812 L 438.285156 424.542969 L 437.6875 432.078125 L 437.472656 431.789062 C 440.082031 432.613281 442.691406 433.414062 445.292969 434.253906 C 447.894531 435.078125 450.503906 435.898438 453.097656 436.746094 L 453.25 436.792969 " fill-opacity="1" fill-rule="nonzero"/></g></g></g></g><g clip-path="url(#1a51dff90e)"><g clip-path="url(#ec4d36a539)"><g clip-path="url(#cd5b2038be)"><g clip-path="url(#12ac9d7d99)"><path fill="#f4d906" d="M 348.625 740.648438 L 343.75 761.539062 L 359.839844 771.839844 L 340.734375 774.453125 L 335.859375 795.347656 L 328.929688 776.066406 L 309.824219 778.671875 L 324.644531 764.148438 L 317.714844 744.867188 L 333.804688 755.171875 L 348.625 740.648438 " fill-opacity="1" fill-rule="evenodd"/></g></g></g></g><g clip-path="url(#4ddd4c5896)"><g clip-path="url(#d1df0b2d29)"><g clip-path="url(#2f3e056abd)"><g clip-path="url(#6dce3dc63b)"><path fill="#191716" d="M 348.511719 740.851562 C 346.136719 743.28125 343.753906 745.691406 341.367188 748.109375 C 338.933594 750.582031 336.488281 753.023438 334.039062 755.476562 L 333.835938 755.6875 L 333.597656 755.539062 L 325.496094 750.5 L 317.414062 745.414062 L 318.234375 744.609375 L 321.769531 754.210938 L 325.253906 763.847656 L 325.421875 764.316406 L 325.054688 764.679688 L 317.660156 771.957031 L 310.230469 779.199219 L 309.789062 777.964844 C 312.972656 777.546875 316.164062 777.105469 319.34375 776.714844 C 322.527344 776.304688 325.710938 775.890625 328.902344 775.507812 L 329.269531 775.464844 L 329.398438 775.828125 L 336.257812 795.148438 L 335.441406 795.253906 L 340.390625 774.378906 L 340.460938 774.097656 L 340.714844 774.058594 L 359.820312 771.554688 L 359.695312 772.097656 L 343.660156 761.699219 L 343.5625 761.632812 L 343.589844 761.503906 Z M 348.730469 740.457031 L 343.90625 761.574219 L 343.835938 761.378906 L 359.980469 771.585938 L 360.664062 772.015625 L 359.851562 772.140625 L 340.757812 774.839844 L 341.074219 774.535156 L 336.273438 795.441406 L 335.941406 796.875 L 335.460938 795.546875 L 328.457031 776.304688 L 328.957031 776.621094 C 325.773438 777.109375 322.59375 777.5625 319.410156 778.03125 C 316.226562 778.511719 313.042969 778.933594 309.863281 779.386719 L 307.878906 779.667969 L 309.417969 778.152344 L 316.808594 770.871094 L 324.230469 763.621094 L 324.039062 764.453125 L 320.59375 754.808594 L 317.191406 745.128906 L 316.574219 743.378906 L 318.015625 744.320312 L 326.027344 749.539062 L 334.011719 754.804688 L 333.558594 754.863281 C 336.0625 752.480469 338.546875 750.078125 341.0625 747.710938 C 343.5625 745.335938 346.066406 742.949219 348.582031 740.589844 L 348.730469 740.457031 " fill-opacity="1" fill-rule="nonzero"/></g></g></g></g><g clip-path="url(#9d30f2b2b4)"><g clip-path="url(#e50e2090f0)"><g clip-path="url(#17a8545cc9)"><g clip-path="url(#5a375cccbb)"><path fill="#f4d906" d="M 396.507812 766.425781 L 395.480469 776.203125 L 403.382812 779.972656 L 394.851562 782.253906 L 393.824219 792.027344 L 389.574219 783.65625 L 381.035156 785.929688 L 386.945312 778.480469 L 382.695312 770.109375 L 390.601562 773.875 L 396.507812 766.425781 " fill-opacity="1" fill-rule="evenodd"/></g></g></g></g><g clip-path="url(#c3826dad22)"><g clip-path="url(#9bd308dd4b)"><g clip-path="url(#3918913abb)"><g clip-path="url(#13be0685c9)"><path fill="#191716" d="M 396.46875 766.527344 C 395.53125 767.769531 394.578125 769 393.636719 770.238281 C 392.671875 771.5 391.691406 772.742188 390.722656 774.003906 L 390.640625 774.109375 L 390.527344 774.054688 L 386.554688 772.226562 L 382.589844 770.375 L 382.917969 769.960938 L 385.070312 774.125 L 387.203125 778.304688 L 387.308594 778.511719 L 387.164062 778.699219 L 384.214844 782.425781 L 381.25 786.140625 L 380.980469 785.605469 C 382.402344 785.234375 383.828125 784.855469 385.25 784.496094 C 386.675781 784.125 388.097656 783.757812 389.53125 783.40625 L 389.695312 783.363281 L 389.769531 783.523438 L 393.992188 791.914062 L 393.628906 792.007812 L 394.691406 782.234375 L 394.703125 782.097656 L 394.816406 782.074219 L 403.363281 779.839844 L 403.332031 780.101562 L 395.449219 776.285156 L 395.402344 776.257812 L 395.410156 776.199219 Z M 396.542969 766.332031 L 395.558594 776.210938 L 395.515625 776.125 L 403.433594 779.847656 L 403.769531 780.007812 L 403.40625 780.109375 L 394.878906 782.421875 L 395.003906 782.265625 L 394.019531 792.042969 L 393.949219 792.714844 L 393.652344 792.140625 L 389.371094 783.789062 L 389.621094 783.90625 C 388.199219 784.304688 386.777344 784.699219 385.359375 785.089844 C 383.941406 785.484375 382.515625 785.859375 381.097656 786.25 L 380.207031 786.492188 L 380.824219 785.714844 L 383.765625 781.984375 L 386.730469 778.265625 L 386.691406 778.652344 L 384.570312 774.46875 L 382.46875 770.257812 L 382.089844 769.496094 L 382.804688 769.84375 L 386.742188 771.757812 L 390.671875 773.699219 L 390.472656 773.753906 C 391.472656 772.527344 392.464844 771.289062 393.472656 770.070312 C 394.476562 768.84375 395.476562 767.625 396.484375 766.40625 L 396.542969 766.332031 " fill-opacity="1" fill-rule="nonzero"/></g></g></g></g><g fill="#e70e17" fill-opacity="1"><g transform="translate(420.562645, 678.083338)"><g><path d="M 53.578125 -52.1875 C 54.296875 -44.550781 53.882812 -37.734375 52.34375 -31.734375 C 50.8125 -25.742188 48.628906 -20.578125 45.796875 -16.234375 C 42.972656 -11.898438 39.726562 -8.484375 36.0625 -5.984375 C 32.394531 -3.484375 28.78125 -1.941406 25.21875 -1.359375 C 22.488281 -0.910156 19.785156 -1.078125 17.109375 -1.859375 C 14.429688 -2.648438 11.988281 -4.097656 9.78125 -6.203125 C 7.570312 -8.316406 5.648438 -11.109375 4.015625 -14.578125 C 2.390625 -18.046875 1.179688 -22.222656 0.390625 -27.109375 C -1.171875 -36.671875 -1.160156 -45.226562 0.421875 -52.78125 C 2.003906 -60.34375 4.503906 -66.835938 7.921875 -72.265625 C 11.347656 -77.691406 15.257812 -81.941406 19.65625 -85.015625 C 24.050781 -88.085938 28.328125 -89.960938 32.484375 -90.640625 C 35.453125 -91.128906 38.113281 -91.03125 40.46875 -90.34375 C 42.820312 -89.664062 44.84375 -88.566406 46.53125 -87.046875 C 48.226562 -85.535156 49.582031 -83.664062 50.59375 -81.4375 C 51.601562 -79.207031 52.316406 -76.796875 52.734375 -74.203125 L 37.984375 -68.828125 C 36.828125 -71.691406 35.59375 -73.660156 34.28125 -74.734375 C 32.96875 -75.816406 31.609375 -76.242188 30.203125 -76.015625 C 28.335938 -75.710938 26.507812 -74.0625 24.71875 -71.0625 C 22.925781 -68.0625 21.40625 -64.332031 20.15625 -59.875 C 18.90625 -55.414062 18.015625 -50.59375 17.484375 -45.40625 C 16.960938 -40.226562 17.015625 -35.210938 17.640625 -30.359375 C 18.390625 -25.765625 19.609375 -22.597656 21.296875 -20.859375 C 22.992188 -19.117188 24.914062 -18.425781 27.0625 -18.78125 C 28.539062 -19.019531 30.015625 -19.640625 31.484375 -20.640625 C 32.960938 -21.640625 34.21875 -22.925781 35.25 -24.5 C 36.289062 -26.082031 37.085938 -27.847656 37.640625 -29.796875 C 38.203125 -31.753906 38.347656 -33.816406 38.078125 -35.984375 L 26.46875 -32.265625 L 26.796875 -43.625 C 30.210938 -44.625 33.550781 -45.617188 36.8125 -46.609375 C 39.5625 -47.429688 42.46875 -48.359375 45.53125 -49.390625 C 48.59375 -50.429688 51.273438 -51.363281 53.578125 -52.1875 Z M 53.578125 -52.1875 "/></g></g></g><g fill="#e70e17" fill-opacity="1"><g transform="translate(475.803199, 669.093868)"><g><path d="M 17.203125 -5.078125 C 16.535156 -4.960938 15.253906 -4.65625 13.359375 -4.15625 C 11.460938 -3.664062 9.5 -3.125 7.46875 -2.53125 C 5.4375 -1.9375 3.601562 -1.390625 1.96875 -0.890625 C 0.332031 -0.390625 -0.546875 -0.09375 -0.671875 0 C -0.316406 -3.332031 -0.0078125 -7.015625 0.25 -11.046875 C 0.507812 -15.085938 0.753906 -19.3125 0.984375 -23.71875 C 1.210938 -28.132812 1.398438 -32.59375 1.546875 -37.09375 C 1.691406 -41.601562 1.84375 -45.96875 2 -50.1875 C 2.300781 -59.976562 2.53125 -70.019531 2.6875 -80.3125 L 19.5625 -85.90625 C 19.257812 -75.664062 18.914062 -65.609375 18.53125 -55.734375 C 18.382812 -51.523438 18.238281 -47.164062 18.09375 -42.65625 C 17.957031 -38.144531 17.847656 -33.675781 17.765625 -29.25 C 17.691406 -24.832031 17.59375 -20.535156 17.46875 -16.359375 C 17.351562 -12.191406 17.265625 -8.429688 17.203125 -5.078125 Z M 17.203125 -5.078125 "/></g></g></g><g fill="#e70e17" fill-opacity="1"><g transform="translate(497.810482, 665.512553)"><g><path d="M 40.5625 -8.875 C 38.75 -8.28125 36.757812 -7.613281 34.59375 -6.875 C 32.4375 -6.144531 30.492188 -5.488281 28.765625 -4.90625 C 28.660156 -7.40625 28.5625 -9.863281 28.46875 -12.28125 C 28.351562 -14.394531 28.21875 -16.5 28.0625 -18.59375 C 27.90625 -20.695312 27.785156 -22.507812 27.703125 -24.03125 L 18.03125 -22.453125 L 16.1875 -5.71875 C 14.59375 -5.226562 12.703125 -4.671875 10.515625 -4.046875 C 8.335938 -3.429688 6.304688 -2.859375 4.421875 -2.328125 C 2.085938 -1.640625 -0.195312 -0.957031 -2.4375 -0.28125 C -1.082031 -10.625 0.265625 -20.8125 1.609375 -30.84375 C 2.128906 -35.039062 2.6875 -39.429688 3.28125 -44.015625 C 3.875 -48.597656 4.460938 -53.160156 5.046875 -57.703125 C 5.640625 -62.253906 6.203125 -66.625 6.734375 -70.8125 C 7.273438 -75.007812 7.710938 -78.851562 8.046875 -82.34375 C 13.023438 -83.519531 18.085938 -84.796875 23.234375 -86.171875 C 28.378906 -87.546875 33.363281 -89.078125 38.1875 -90.765625 C 38.34375 -88.359375 38.578125 -85.375 38.890625 -81.8125 C 39.203125 -78.257812 39.582031 -74.382812 40.03125 -70.1875 C 40.488281 -66 40.972656 -61.625 41.484375 -57.0625 C 42.003906 -52.507812 42.503906 -48.03125 42.984375 -43.625 C 44.273438 -33.332031 45.640625 -22.40625 47.078125 -10.84375 C 44.910156 -10.125 42.738281 -9.46875 40.5625 -8.875 Z M 18.890625 -34 C 19.179688 -34.039062 19.710938 -34.144531 20.484375 -34.3125 C 21.265625 -34.488281 22.070312 -34.660156 22.90625 -34.828125 C 23.75 -34.992188 24.539062 -35.15625 25.28125 -35.3125 C 26.03125 -35.476562 26.539062 -35.617188 26.8125 -35.734375 C 26.738281 -36.179688 26.671875 -36.953125 26.609375 -38.046875 C 26.546875 -39.140625 26.457031 -40.378906 26.34375 -41.765625 C 26.238281 -43.160156 26.125 -44.679688 26 -46.328125 C 25.882812 -47.984375 25.773438 -49.601562 25.671875 -51.1875 C 25.359375 -55.019531 25.066406 -59.160156 24.796875 -63.609375 L 23.890625 -73.375 L 22.234375 -72.984375 L 21.234375 -63.015625 Z M 18.890625 -34 "/></g></g></g><g fill="#e70e17" fill-opacity="1"><g transform="translate(545.715257, 657.716858)"><g><path d="M 52.46875 -70.265625 C 53.457031 -64.179688 53.738281 -58.347656 53.3125 -52.765625 C 52.894531 -47.191406 51.972656 -41.988281 50.546875 -37.15625 C 49.128906 -32.320312 47.28125 -27.910156 45 -23.921875 C 42.71875 -19.929688 40.222656 -16.441406 37.515625 -13.453125 C 34.804688 -10.460938 31.960938 -8.0625 28.984375 -6.25 C 26.015625 -4.4375 23.085938 -3.296875 20.203125 -2.828125 C 17.753906 -2.421875 15.453125 -2.519531 13.296875 -3.125 C 11.148438 -3.726562 9.1875 -4.816406 7.40625 -6.390625 C 5.625 -7.960938 4.070312 -10.109375 2.75 -12.828125 C 1.4375 -15.546875 0.453125 -18.90625 -0.203125 -22.90625 C -0.867188 -27.050781 -1.054688 -31.503906 -0.765625 -36.265625 C -0.484375 -41.023438 0.175781 -45.8125 1.21875 -50.625 C 2.269531 -55.445312 3.757812 -60.101562 5.6875 -64.59375 C 7.613281 -69.09375 9.878906 -73.171875 12.484375 -76.828125 C 15.085938 -80.484375 18.015625 -83.523438 21.265625 -85.953125 C 24.523438 -88.390625 28.082031 -89.921875 31.9375 -90.546875 C 35.269531 -91.097656 38.140625 -90.863281 40.546875 -89.84375 C 42.960938 -88.820312 44.957031 -87.316406 46.53125 -85.328125 C 48.113281 -83.347656 49.382812 -81.023438 50.34375 -78.359375 C 51.3125 -75.703125 52.019531 -73.003906 52.46875 -70.265625 Z M 15.890625 -28.484375 C 16.023438 -27.671875 16.3125 -26.84375 16.75 -26 C 17.195312 -25.164062 17.734375 -24.457031 18.359375 -23.875 C 18.992188 -23.289062 19.738281 -22.816406 20.59375 -22.453125 C 21.445312 -22.097656 22.320312 -21.992188 23.21875 -22.140625 C 26.550781 -22.679688 29.328125 -24.3125 31.546875 -27.03125 C 33.765625 -29.75 35.453125 -32.914062 36.609375 -36.53125 C 37.773438 -40.144531 38.515625 -43.914062 38.828125 -47.84375 C 39.148438 -51.769531 39.054688 -55.289062 38.546875 -58.40625 C 38.398438 -59.300781 38.1875 -60.253906 37.90625 -61.265625 C 37.625 -62.285156 37.242188 -63.210938 36.765625 -64.046875 C 36.285156 -64.878906 35.640625 -65.554688 34.828125 -66.078125 C 34.015625 -66.597656 33.019531 -66.765625 31.84375 -66.578125 C 29.46875 -66.191406 27.375 -65.238281 25.5625 -63.71875 C 23.757812 -62.207031 22.222656 -60.34375 20.953125 -58.125 C 19.679688 -55.90625 18.648438 -53.457031 17.859375 -50.78125 C 17.078125 -48.101562 16.46875 -45.414062 16.03125 -42.71875 C 15.601562 -40.019531 15.398438 -37.414062 15.421875 -34.90625 C 15.441406 -32.40625 15.597656 -30.265625 15.890625 -28.484375 Z M 15.890625 -28.484375 "/></g></g></g><g fill="#e70e17" fill-opacity="1"><g transform="translate(600.288939, 648.83591)"><g/></g></g><g fill="#e70e17" fill-opacity="1"><g transform="translate(621.740463, 645.345036)"><g><path d="M 10.03125 -1.515625 C 10.40625 -9.953125 10.722656 -18.257812 10.984375 -26.4375 C 11.117188 -29.882812 11.21875 -33.472656 11.28125 -37.203125 C 11.351562 -40.941406 11.414062 -44.625 11.46875 -48.25 C 11.53125 -51.875 11.535156 -55.375 11.484375 -58.75 C 11.429688 -62.125 11.367188 -65.21875 11.296875 -68.03125 C 9.554688 -67.957031 7.816406 -67.742188 6.078125 -67.390625 C 4.347656 -67.046875 2.585938 -66.988281 0.796875 -67.21875 C 0.691406 -68.414062 0.507812 -69.789062 0.25 -71.34375 C 0 -72.90625 -0.210938 -74.476562 -0.390625 -76.0625 C -0.597656 -77.769531 -0.820312 -79.59375 -1.0625 -81.53125 C 0.894531 -81.695312 2.84375 -81.894531 4.78125 -82.125 C 6.71875 -82.363281 8.648438 -82.640625 10.578125 -82.953125 C 14.347656 -83.566406 17.976562 -84.253906 21.46875 -85.015625 C 24.96875 -85.773438 28.195312 -86.53125 31.15625 -87.28125 C 34.113281 -88.03125 37.003906 -88.828125 39.828125 -89.671875 L 39.59375 -83.46875 C 39.5 -81.707031 39.429688 -79.90625 39.390625 -78.0625 C 39.347656 -76.226562 39.273438 -74.660156 39.171875 -73.359375 C 37.617188 -72.648438 36.019531 -72.066406 34.375 -71.609375 C 32.738281 -71.148438 31.132812 -70.640625 29.5625 -70.078125 C 29.445312 -67.472656 29.34375 -64.582031 29.25 -61.40625 C 29.164062 -58.238281 29.113281 -54.960938 29.09375 -51.578125 C 29.070312 -48.191406 29.078125 -44.75 29.109375 -41.25 C 29.148438 -37.75 29.160156 -34.398438 29.140625 -31.203125 C 29.148438 -23.691406 29.28125 -15.921875 29.53125 -7.890625 Z M 10.03125 -1.515625 "/></g></g></g><g fill="#e70e17" fill-opacity="1"><g transform="translate(661.753744, 638.833548)"><g><path d="M 17.203125 -5.078125 C 16.535156 -4.960938 15.253906 -4.65625 13.359375 -4.15625 C 11.460938 -3.664062 9.5 -3.125 7.46875 -2.53125 C 5.4375 -1.9375 3.601562 -1.390625 1.96875 -0.890625 C 0.332031 -0.390625 -0.546875 -0.09375 -0.671875 0 C -0.316406 -3.332031 -0.0078125 -7.015625 0.25 -11.046875 C 0.507812 -15.085938 0.753906 -19.3125 0.984375 -23.71875 C 1.210938 -28.132812 1.398438 -32.59375 1.546875 -37.09375 C 1.691406 -41.601562 1.84375 -45.96875 2 -50.1875 C 2.300781 -59.976562 2.53125 -70.019531 2.6875 -80.3125 L 19.5625 -85.90625 C 19.257812 -75.664062 18.914062 -65.609375 18.53125 -55.734375 C 18.382812 -51.523438 18.238281 -47.164062 18.09375 -42.65625 C 17.957031 -38.144531 17.847656 -33.675781 17.765625 -29.25 C 17.691406 -24.832031 17.59375 -20.535156 17.46875 -16.359375 C 17.351562 -12.191406 17.265625 -8.429688 17.203125 -5.078125 Z M 17.203125 -5.078125 "/></g></g></g><g fill="#e70e17" fill-opacity="1"><g transform="translate(683.761031, 635.252233)"><g><path d="M 0.90625 -0.03125 L 2.609375 -81.453125 L 37.25 -90.15625 C 36.988281 -88.445312 36.816406 -86.707031 36.734375 -84.9375 C 36.585938 -83.46875 36.46875 -81.945312 36.375 -80.375 C 36.289062 -78.800781 36.238281 -77.398438 36.21875 -76.171875 C 35.488281 -75.984375 34.441406 -75.757812 33.078125 -75.5 C 31.710938 -75.25 30.25 -74.972656 28.6875 -74.671875 C 27.132812 -74.378906 25.5625 -74.101562 23.96875 -73.84375 C 22.375 -73.582031 20.988281 -73.359375 19.8125 -73.171875 L 19.171875 -52.625 C 21.429688 -53.15625 23.5625 -53.625 25.5625 -54.03125 C 27.175781 -54.363281 28.832031 -54.664062 30.53125 -54.9375 C 32.238281 -55.21875 33.492188 -55.460938 34.296875 -55.671875 C 34.335938 -53.546875 34.390625 -51.460938 34.453125 -49.421875 C 34.523438 -47.378906 34.546875 -45.285156 34.515625 -43.140625 C 33.785156 -42.953125 32.585938 -42.703125 30.921875 -42.390625 C 29.253906 -42.085938 27.578125 -41.757812 25.890625 -41.40625 C 23.984375 -41.03125 21.890625 -40.613281 19.609375 -40.15625 L 19.15625 -19.09375 L 34.953125 -24.296875 L 35.90625 -11.421875 Z M 18.40625 -104.203125 C 17.71875 -103.328125 16.914062 -102.207031 16 -100.84375 C 15.082031 -99.476562 14.171875 -98.078125 13.265625 -96.640625 C 12.359375 -95.203125 11.441406 -93.796875 10.515625 -92.421875 C 9.585938 -91.054688 8.820312 -89.90625 8.21875 -88.96875 C 7.132812 -89.625 6.160156 -90.242188 5.296875 -90.828125 C 4.441406 -91.410156 3.742188 -91.96875 3.203125 -92.5 C 2.421875 -93.0625 1.757812 -93.597656 1.21875 -94.109375 C 2.8125 -97.484375 4.484375 -100.796875 6.234375 -104.046875 C 7.679688 -106.796875 9.28125 -109.679688 11.03125 -112.703125 C 12.789062 -115.734375 14.476562 -118.363281 16.09375 -120.59375 C 19.050781 -120.625 21.097656 -120.769531 22.234375 -121.03125 C 23.378906 -121.289062 24.035156 -121.363281 24.203125 -121.25 C 25.117188 -119.332031 26.140625 -117.132812 27.265625 -114.65625 C 28.390625 -112.1875 29.476562 -109.851562 30.53125 -107.65625 C 31.789062 -105.039062 33.050781 -102.4375 34.3125 -99.84375 C 33.539062 -98.957031 32.769531 -98.070312 32 -97.1875 C 31.363281 -96.382812 30.617188 -95.550781 29.765625 -94.6875 C 28.921875 -93.832031 28.109375 -93 27.328125 -92.1875 Z M 50.046875 -120.875 C 47.335938 -119.289062 44.46875 -117.644531 41.4375 -115.9375 C 38.414062 -114.238281 35.578125 -112.632812 32.921875 -111.125 C 32.765625 -111.632812 32.648438 -112.109375 32.578125 -112.546875 C 32.503906 -112.992188 32.429688 -113.441406 32.359375 -113.890625 C 32.234375 -114.628906 32.125 -115.390625 32.03125 -116.171875 C 31.945312 -116.953125 31.832031 -117.789062 31.6875 -118.6875 C 34.34375 -122.46875 36.90625 -125.890625 39.375 -128.953125 C 41.84375 -132.023438 44.078125 -135.128906 46.078125 -138.265625 C 46.890625 -135.117188 47.519531 -132.15625 47.96875 -129.375 C 48.425781 -126.601562 49.117188 -123.769531 50.046875 -120.875 Z M 50.046875 -120.875 "/></g></g></g><g fill="#e70e17" fill-opacity="1"><g transform="translate(721.440163, 629.120589)"><g><path d="M -0.328125 0.171875 C 0.273438 -10.191406 0.796875 -20.316406 1.234375 -30.203125 C 1.410156 -34.335938 1.582031 -38.703125 1.75 -43.296875 C 1.914062 -47.890625 2.054688 -52.398438 2.171875 -56.828125 C 2.285156 -61.253906 2.382812 -65.53125 2.46875 -69.65625 C 2.5625 -73.78125 2.597656 -77.554688 2.578125 -80.984375 C 4.609375 -81.992188 6.617188 -82.90625 8.609375 -83.71875 C 10.609375 -84.539062 12.675781 -85.316406 14.8125 -86.046875 C 16.945312 -86.773438 18.972656 -87.296875 20.890625 -87.609375 C 24.222656 -88.148438 27.109375 -88.046875 29.546875 -87.296875 C 31.984375 -86.554688 34.0625 -85.359375 35.78125 -83.703125 C 37.5 -82.046875 38.859375 -80.003906 39.859375 -77.578125 C 40.859375 -75.160156 41.59375 -72.503906 42.0625 -69.609375 C 42.738281 -65.460938 42.632812 -61.332031 41.75 -57.21875 C 40.863281 -53.113281 39.378906 -49.351562 37.296875 -45.9375 C 35.222656 -42.519531 32.6875 -39.65625 29.6875 -37.34375 C 26.6875 -35.03125 23.40625 -33.585938 19.84375 -33.015625 L 18.625 -32.8125 C 18.4375 -30.195312 18.320312 -27.363281 18.28125 -24.3125 C 18.25 -21.269531 18.253906 -18.457031 18.296875 -15.875 C 18.273438 -12.820312 18.273438 -9.78125 18.296875 -6.75 Z M 19.515625 -73.5625 C 19.492188 -68.550781 19.429688 -63.789062 19.328125 -59.28125 C 19.234375 -54.769531 19.101562 -49.957031 18.9375 -44.84375 C 20.082031 -45.332031 21.210938 -46.21875 22.328125 -47.5 C 23.453125 -48.789062 24.429688 -50.394531 25.265625 -52.3125 C 26.097656 -54.238281 26.65625 -56.40625 26.9375 -58.8125 C 27.226562 -61.21875 27.164062 -63.679688 26.75 -66.203125 C 26.3125 -68.941406 25.367188 -70.914062 23.921875 -72.125 C 22.472656 -73.332031 21.003906 -73.8125 19.515625 -73.5625 Z M 19.515625 -73.5625 "/></g></g></g></svg>