<svg xmlns="http://www.w3.org/2000/svg" xmlns:xlink="http://www.w3.org/1999/xlink" width="1600" zoomAndPan="magnify" viewBox="0 0 1200 1199.999942" height="1600" preserveAspectRatio="xMidYMid meet" version="1.0"><defs><g/><clipPath id="9ad041137b"><path d="M 397 444 L 804 444 L 804 768 L 397 768 Z M 397 444 " clip-rule="nonzero"/></clipPath><clipPath id="cb35535f78"><path d="M 398.066406 373.953125 L 838.808594 413.371094 L 801.929688 825.722656 L 361.1875 786.308594 Z M 398.066406 373.953125 " clip-rule="nonzero"/></clipPath><clipPath id="737b5ffde8"><path d="M 398.066406 373.953125 L 838.808594 413.371094 L 801.929688 825.722656 L 361.1875 786.308594 Z M 398.066406 373.953125 " clip-rule="nonzero"/></clipPath><clipPath id="df54511c26"><path d="M 398.066406 373.953125 L 838.808594 413.371094 L 801.929688 825.722656 L 361.1875 786.308594 Z M 398.066406 373.953125 " clip-rule="nonzero"/></clipPath><clipPath id="18f06f8c7d"><path d="M 413 457 L 788 457 L 788 755 L 413 755 Z M 413 457 " clip-rule="nonzero"/></clipPath><clipPath id="3d4595f979"><path d="M 398.066406 373.953125 L 838.808594 413.371094 L 801.929688 825.722656 L 361.1875 786.308594 Z M 398.066406 373.953125 " clip-rule="nonzero"/></clipPath><clipPath id="60f68ce5cc"><path d="M 398.066406 373.953125 L 838.808594 413.371094 L 801.929688 825.722656 L 361.1875 786.308594 Z M 398.066406 373.953125 " clip-rule="nonzero"/></clipPath><clipPath id="f86a1de9d5"><path d="M 398.066406 373.953125 L 838.808594 413.371094 L 801.929688 825.722656 L 361.1875 786.308594 Z M 398.066406 373.953125 " clip-rule="nonzero"/></clipPath><clipPath id="33c8cec00a"><path d="M 490 452 L 521 452 L 521 492 L 490 492 Z M 490 452 " clip-rule="nonzero"/></clipPath><clipPath id="e9278e345d"><path d="M 398.066406 373.953125 L 838.808594 413.371094 L 801.929688 825.722656 L 361.1875 786.308594 Z M 398.066406 373.953125 " clip-rule="nonzero"/></clipPath><clipPath id="1e8f202f66"><path d="M 398.066406 373.953125 L 838.808594 413.371094 L 801.929688 825.722656 L 361.1875 786.308594 Z M 398.066406 373.953125 " clip-rule="nonzero"/></clipPath><clipPath id="54d5d6ea9f"><path d="M 398.066406 373.953125 L 838.808594 413.371094 L 801.929688 825.722656 L 361.1875 786.308594 Z M 398.066406 373.953125 " clip-rule="nonzero"/></clipPath><clipPath id="4c28d4cdd0"><path d="M 506 401 L 528 401 L 528 454 L 506 454 Z M 506 401 " clip-rule="nonzero"/></clipPath><clipPath id="dfb8ec4425"><path d="M 398.066406 373.953125 L 838.808594 413.371094 L 801.929688 825.722656 L 361.1875 786.308594 Z M 398.066406 373.953125 " clip-rule="nonzero"/></clipPath><clipPath id="4697988001"><path d="M 398.066406 373.953125 L 838.808594 413.371094 L 801.929688 825.722656 L 361.1875 786.308594 Z M 398.066406 373.953125 " clip-rule="nonzero"/></clipPath><clipPath id="55083c10ec"><path d="M 398.066406 373.953125 L 838.808594 413.371094 L 801.929688 825.722656 L 361.1875 786.308594 Z M 398.066406 373.953125 " clip-rule="nonzero"/></clipPath><clipPath id="57450430c7"><path d="M 641 402 L 666 402 L 666 469 L 641 469 Z M 641 402 " clip-rule="nonzero"/></clipPath><clipPath id="62a5f88d31"><path d="M 398.066406 373.953125 L 838.808594 413.371094 L 801.929688 825.722656 L 361.1875 786.308594 Z M 398.066406 373.953125 " clip-rule="nonzero"/></clipPath><clipPath id="c09029f5da"><path d="M 398.066406 373.953125 L 838.808594 413.371094 L 801.929688 825.722656 L 361.1875 786.308594 Z M 398.066406 373.953125 " clip-rule="nonzero"/></clipPath><clipPath id="94e497b6d6"><path d="M 398.066406 373.953125 L 838.808594 413.371094 L 801.929688 825.722656 L 361.1875 786.308594 Z M 398.066406 373.953125 " clip-rule="nonzero"/></clipPath><clipPath id="6066047ad9"><path d="M 636 396 L 657 396 L 657 473 L 636 473 Z M 636 396 " clip-rule="nonzero"/></clipPath><clipPath id="b82f42fa3e"><path d="M 398.066406 373.953125 L 838.808594 413.371094 L 801.929688 825.722656 L 361.1875 786.308594 Z M 398.066406 373.953125 " clip-rule="nonzero"/></clipPath><clipPath id="45081a9722"><path d="M 398.066406 373.953125 L 838.808594 413.371094 L 801.929688 825.722656 L 361.1875 786.308594 Z M 398.066406 373.953125 " clip-rule="nonzero"/></clipPath><clipPath id="0af3443fe0"><path d="M 398.066406 373.953125 L 838.808594 413.371094 L 801.929688 825.722656 L 361.1875 786.308594 Z M 398.066406 373.953125 " clip-rule="nonzero"/></clipPath><clipPath id="d401814ed1"><path d="M 723 452 L 769 452 L 769 493 L 723 493 Z M 723 452 " clip-rule="nonzero"/></clipPath><clipPath id="ddd3428778"><path d="M 398.066406 373.953125 L 838.808594 413.371094 L 801.929688 825.722656 L 361.1875 786.308594 Z M 398.066406 373.953125 " clip-rule="nonzero"/></clipPath><clipPath id="3dc7ac1fe9"><path d="M 398.066406 373.953125 L 838.808594 413.371094 L 801.929688 825.722656 L 361.1875 786.308594 Z M 398.066406 373.953125 " clip-rule="nonzero"/></clipPath><clipPath id="37840d9512"><path d="M 398.066406 373.953125 L 838.808594 413.371094 L 801.929688 825.722656 L 361.1875 786.308594 Z M 398.066406 373.953125 " clip-rule="nonzero"/></clipPath><clipPath id="6d8c77ee5f"><path d="M 673 718 L 711 718 L 711 779 L 673 779 Z M 673 718 " clip-rule="nonzero"/></clipPath><clipPath id="52a4642d2c"><path d="M 398.066406 373.953125 L 838.808594 413.371094 L 801.929688 825.722656 L 361.1875 786.308594 Z M 398.066406 373.953125 " clip-rule="nonzero"/></clipPath><clipPath id="26e371b3fd"><path d="M 398.066406 373.953125 L 838.808594 413.371094 L 801.929688 825.722656 L 361.1875 786.308594 Z M 398.066406 373.953125 " clip-rule="nonzero"/></clipPath><clipPath id="52fd649f0d"><path d="M 398.066406 373.953125 L 838.808594 413.371094 L 801.929688 825.722656 L 361.1875 786.308594 Z M 398.066406 373.953125 " clip-rule="nonzero"/></clipPath><clipPath id="58f90a042e"><path d="M 761 669 L 814 669 L 814 692 L 761 692 Z M 761 669 " clip-rule="nonzero"/></clipPath><clipPath id="56a431e47a"><path d="M 398.066406 373.953125 L 838.808594 413.371094 L 801.929688 825.722656 L 361.1875 786.308594 Z M 398.066406 373.953125 " clip-rule="nonzero"/></clipPath><clipPath id="e93a58832d"><path d="M 398.066406 373.953125 L 838.808594 413.371094 L 801.929688 825.722656 L 361.1875 786.308594 Z M 398.066406 373.953125 " clip-rule="nonzero"/></clipPath><clipPath id="b5587c9851"><path d="M 398.066406 373.953125 L 838.808594 413.371094 L 801.929688 825.722656 L 361.1875 786.308594 Z M 398.066406 373.953125 " clip-rule="nonzero"/></clipPath><clipPath id="16f6adf35c"><path d="M 686 699 L 754 699 L 754 775 L 686 775 Z M 686 699 " clip-rule="nonzero"/></clipPath><clipPath id="e1d96ccde1"><path d="M 398.066406 373.953125 L 838.808594 413.371094 L 801.929688 825.722656 L 361.1875 786.308594 Z M 398.066406 373.953125 " clip-rule="nonzero"/></clipPath><clipPath id="207181bd92"><path d="M 398.066406 373.953125 L 838.808594 413.371094 L 801.929688 825.722656 L 361.1875 786.308594 Z M 398.066406 373.953125 " clip-rule="nonzero"/></clipPath><clipPath id="fef15a207c"><path d="M 398.066406 373.953125 L 838.808594 413.371094 L 801.929688 825.722656 L 361.1875 786.308594 Z M 398.066406 373.953125 " clip-rule="nonzero"/></clipPath><clipPath id="061a95b1c4"><path d="M 702 703 L 739 703 L 739 740 L 702 740 Z M 702 703 " clip-rule="nonzero"/></clipPath><clipPath id="7c730b5f51"><path d="M 398.066406 373.953125 L 838.808594 413.371094 L 801.929688 825.722656 L 361.1875 786.308594 Z M 398.066406 373.953125 " clip-rule="nonzero"/></clipPath><clipPath id="f628ee2289"><path d="M 398.066406 373.953125 L 838.808594 413.371094 L 801.929688 825.722656 L 361.1875 786.308594 Z M 398.066406 373.953125 " clip-rule="nonzero"/></clipPath><clipPath id="a4338080ab"><path d="M 398.066406 373.953125 L 838.808594 413.371094 L 801.929688 825.722656 L 361.1875 786.308594 Z M 398.066406 373.953125 " clip-rule="nonzero"/></clipPath><clipPath id="d4b44efd4f"><path d="M 593 727 L 597 727 L 597 808 L 593 808 Z M 593 727 " clip-rule="nonzero"/></clipPath><clipPath id="1fea382dc7"><path d="M 398.066406 373.953125 L 838.808594 413.371094 L 801.929688 825.722656 L 361.1875 786.308594 Z M 398.066406 373.953125 " clip-rule="nonzero"/></clipPath><clipPath id="36c24ed036"><path d="M 398.066406 373.953125 L 838.808594 413.371094 L 801.929688 825.722656 L 361.1875 786.308594 Z M 398.066406 373.953125 " clip-rule="nonzero"/></clipPath><clipPath id="71665bccc5"><path d="M 398.066406 373.953125 L 838.808594 413.371094 L 801.929688 825.722656 L 361.1875 786.308594 Z M 398.066406 373.953125 " clip-rule="nonzero"/></clipPath><clipPath id="dee5fe2eb5"><path d="M 577 729 L 586 729 L 586 781 L 577 781 Z M 577 729 " clip-rule="nonzero"/></clipPath><clipPath id="6ac19c9b54"><path d="M 398.066406 373.953125 L 838.808594 413.371094 L 801.929688 825.722656 L 361.1875 786.308594 Z M 398.066406 373.953125 " clip-rule="nonzero"/></clipPath><clipPath id="a5c0c3812c"><path d="M 398.066406 373.953125 L 838.808594 413.371094 L 801.929688 825.722656 L 361.1875 786.308594 Z M 398.066406 373.953125 " clip-rule="nonzero"/></clipPath><clipPath id="099a2d6913"><path d="M 398.066406 373.953125 L 838.808594 413.371094 L 801.929688 825.722656 L 361.1875 786.308594 Z M 398.066406 373.953125 " clip-rule="nonzero"/></clipPath><clipPath id="10af2bd37d"><path d="M 435 718 L 492 718 L 492 785 L 435 785 Z M 435 718 " clip-rule="nonzero"/></clipPath><clipPath id="6cab8ba390"><path d="M 398.066406 373.953125 L 838.808594 413.371094 L 801.929688 825.722656 L 361.1875 786.308594 Z M 398.066406 373.953125 " clip-rule="nonzero"/></clipPath><clipPath id="a5e8433654"><path d="M 398.066406 373.953125 L 838.808594 413.371094 L 801.929688 825.722656 L 361.1875 786.308594 Z M 398.066406 373.953125 " clip-rule="nonzero"/></clipPath><clipPath id="382543e8db"><path d="M 398.066406 373.953125 L 838.808594 413.371094 L 801.929688 825.722656 L 361.1875 786.308594 Z M 398.066406 373.953125 " clip-rule="nonzero"/></clipPath><clipPath id="90ec9ce941"><path d="M 373 676 L 423 676 L 423 699 L 373 699 Z M 373 676 " clip-rule="nonzero"/></clipPath><clipPath id="1cf6009a00"><path d="M 398.066406 373.953125 L 838.808594 413.371094 L 801.929688 825.722656 L 361.1875 786.308594 Z M 398.066406 373.953125 " clip-rule="nonzero"/></clipPath><clipPath id="40c39b79cb"><path d="M 398.066406 373.953125 L 838.808594 413.371094 L 801.929688 825.722656 L 361.1875 786.308594 Z M 398.066406 373.953125 " clip-rule="nonzero"/></clipPath><clipPath id="9bdb82ea89"><path d="M 398.066406 373.953125 L 838.808594 413.371094 L 801.929688 825.722656 L 361.1875 786.308594 Z M 398.066406 373.953125 " clip-rule="nonzero"/></clipPath><clipPath id="ade99daeb9"><path d="M 384 529 L 441 529 L 441 553 L 384 553 Z M 384 529 " clip-rule="nonzero"/></clipPath><clipPath id="2cbb08f469"><path d="M 398.066406 373.953125 L 838.808594 413.371094 L 801.929688 825.722656 L 361.1875 786.308594 Z M 398.066406 373.953125 " clip-rule="nonzero"/></clipPath><clipPath id="1fcca956dd"><path d="M 398.066406 373.953125 L 838.808594 413.371094 L 801.929688 825.722656 L 361.1875 786.308594 Z M 398.066406 373.953125 " clip-rule="nonzero"/></clipPath><clipPath id="75435b2020"><path d="M 398.066406 373.953125 L 838.808594 413.371094 L 801.929688 825.722656 L 361.1875 786.308594 Z M 398.066406 373.953125 " clip-rule="nonzero"/></clipPath><clipPath id="b54e3441d2"><path d="M 386 499 L 430 499 L 430 524 L 386 524 Z M 386 499 " clip-rule="nonzero"/></clipPath><clipPath id="af90433ecf"><path d="M 398.066406 373.953125 L 838.808594 413.371094 L 801.929688 825.722656 L 361.1875 786.308594 Z M 398.066406 373.953125 " clip-rule="nonzero"/></clipPath><clipPath id="880f7ade28"><path d="M 398.066406 373.953125 L 838.808594 413.371094 L 801.929688 825.722656 L 361.1875 786.308594 Z M 398.066406 373.953125 " clip-rule="nonzero"/></clipPath><clipPath id="909dbd14db"><path d="M 398.066406 373.953125 L 838.808594 413.371094 L 801.929688 825.722656 L 361.1875 786.308594 Z M 398.066406 373.953125 " clip-rule="nonzero"/></clipPath><clipPath id="864134d82d"><path d="M 469 388 L 533 388 L 533 491 L 469 491 Z M 469 388 " clip-rule="nonzero"/></clipPath><clipPath id="4047d2c17c"><path d="M 398.066406 373.953125 L 838.808594 413.371094 L 801.929688 825.722656 L 361.1875 786.308594 Z M 398.066406 373.953125 " clip-rule="nonzero"/></clipPath><clipPath id="2296dc8771"><path d="M 398.066406 373.953125 L 838.808594 413.371094 L 801.929688 825.722656 L 361.1875 786.308594 Z M 398.066406 373.953125 " clip-rule="nonzero"/></clipPath><clipPath id="8a86dee7bb"><path d="M 398.066406 373.953125 L 838.808594 413.371094 L 801.929688 825.722656 L 361.1875 786.308594 Z M 398.066406 373.953125 " clip-rule="nonzero"/></clipPath><clipPath id="9eb64e23a9"><path d="M 759 468 L 790 468 L 790 502 L 759 502 Z M 759 468 " clip-rule="nonzero"/></clipPath><clipPath id="ff9fdc9247"><path d="M 398.066406 373.953125 L 838.808594 413.371094 L 801.929688 825.722656 L 361.1875 786.308594 Z M 398.066406 373.953125 " clip-rule="nonzero"/></clipPath><clipPath id="1d9372e3c7"><path d="M 398.066406 373.953125 L 838.808594 413.371094 L 801.929688 825.722656 L 361.1875 786.308594 Z M 398.066406 373.953125 " clip-rule="nonzero"/></clipPath><clipPath id="103f3f1e9a"><path d="M 398.066406 373.953125 L 838.808594 413.371094 L 801.929688 825.722656 L 361.1875 786.308594 Z M 398.066406 373.953125 " clip-rule="nonzero"/></clipPath><clipPath id="06d4565150"><path d="M 758 467 L 791 467 L 791 502 L 758 502 Z M 758 467 " clip-rule="nonzero"/></clipPath><clipPath id="3f6dae2cef"><path d="M 398.066406 373.953125 L 838.808594 413.371094 L 801.929688 825.722656 L 361.1875 786.308594 Z M 398.066406 373.953125 " clip-rule="nonzero"/></clipPath><clipPath id="bada5efafb"><path d="M 398.066406 373.953125 L 838.808594 413.371094 L 801.929688 825.722656 L 361.1875 786.308594 Z M 398.066406 373.953125 " clip-rule="nonzero"/></clipPath><clipPath id="1421df15a8"><path d="M 398.066406 373.953125 L 838.808594 413.371094 L 801.929688 825.722656 L 361.1875 786.308594 Z M 398.066406 373.953125 " clip-rule="nonzero"/></clipPath><clipPath id="a3882fe7d6"><path d="M 456 461 L 489 461 L 489 492 L 456 492 Z M 456 461 " clip-rule="nonzero"/></clipPath><clipPath id="9e475168c9"><path d="M 398.066406 373.953125 L 838.808594 413.371094 L 801.929688 825.722656 L 361.1875 786.308594 Z M 398.066406 373.953125 " clip-rule="nonzero"/></clipPath><clipPath id="7170524b18"><path d="M 398.066406 373.953125 L 838.808594 413.371094 L 801.929688 825.722656 L 361.1875 786.308594 Z M 398.066406 373.953125 " clip-rule="nonzero"/></clipPath><clipPath id="5fbd1e79a7"><path d="M 398.066406 373.953125 L 838.808594 413.371094 L 801.929688 825.722656 L 361.1875 786.308594 Z M 398.066406 373.953125 " clip-rule="nonzero"/></clipPath><clipPath id="d582cc5199"><path d="M 455 460 L 489 460 L 489 492 L 455 492 Z M 455 460 " clip-rule="nonzero"/></clipPath><clipPath id="58bbe33769"><path d="M 398.066406 373.953125 L 838.808594 413.371094 L 801.929688 825.722656 L 361.1875 786.308594 Z M 398.066406 373.953125 " clip-rule="nonzero"/></clipPath><clipPath id="7cd6f90dd2"><path d="M 398.066406 373.953125 L 838.808594 413.371094 L 801.929688 825.722656 L 361.1875 786.308594 Z M 398.066406 373.953125 " clip-rule="nonzero"/></clipPath><clipPath id="efa707b9ce"><path d="M 398.066406 373.953125 L 838.808594 413.371094 L 801.929688 825.722656 L 361.1875 786.308594 Z M 398.066406 373.953125 " clip-rule="nonzero"/></clipPath><clipPath id="d8a8432371"><path d="M 380 706 L 419 706 L 419 748 L 380 748 Z M 380 706 " clip-rule="nonzero"/></clipPath><clipPath id="fe75852775"><path d="M 398.066406 373.953125 L 838.808594 413.371094 L 801.929688 825.722656 L 361.1875 786.308594 Z M 398.066406 373.953125 " clip-rule="nonzero"/></clipPath><clipPath id="8f6618f58d"><path d="M 398.066406 373.953125 L 838.808594 413.371094 L 801.929688 825.722656 L 361.1875 786.308594 Z M 398.066406 373.953125 " clip-rule="nonzero"/></clipPath><clipPath id="3df7ef59d1"><path d="M 398.066406 373.953125 L 838.808594 413.371094 L 801.929688 825.722656 L 361.1875 786.308594 Z M 398.066406 373.953125 " clip-rule="nonzero"/></clipPath><clipPath id="54a4201493"><path d="M 378 706 L 419 706 L 419 750 L 378 750 Z M 378 706 " clip-rule="nonzero"/></clipPath><clipPath id="fdfa2e54c1"><path d="M 398.066406 373.953125 L 838.808594 413.371094 L 801.929688 825.722656 L 361.1875 786.308594 Z M 398.066406 373.953125 " clip-rule="nonzero"/></clipPath><clipPath id="dd92031ebf"><path d="M 398.066406 373.953125 L 838.808594 413.371094 L 801.929688 825.722656 L 361.1875 786.308594 Z M 398.066406 373.953125 " clip-rule="nonzero"/></clipPath><clipPath id="dbb0d89cc4"><path d="M 398.066406 373.953125 L 838.808594 413.371094 L 801.929688 825.722656 L 361.1875 786.308594 Z M 398.066406 373.953125 " clip-rule="nonzero"/></clipPath><clipPath id="56f9d75942"><path d="M 434 725 L 452 725 L 452 746 L 434 746 Z M 434 725 " clip-rule="nonzero"/></clipPath><clipPath id="b68e44e318"><path d="M 398.066406 373.953125 L 838.808594 413.371094 L 801.929688 825.722656 L 361.1875 786.308594 Z M 398.066406 373.953125 " clip-rule="nonzero"/></clipPath><clipPath id="8ad15ab2ff"><path d="M 398.066406 373.953125 L 838.808594 413.371094 L 801.929688 825.722656 L 361.1875 786.308594 Z M 398.066406 373.953125 " clip-rule="nonzero"/></clipPath><clipPath id="b8ac7c26dd"><path d="M 398.066406 373.953125 L 838.808594 413.371094 L 801.929688 825.722656 L 361.1875 786.308594 Z M 398.066406 373.953125 " clip-rule="nonzero"/></clipPath><clipPath id="9683366935"><path d="M 433 725 L 452 725 L 452 746 L 433 746 Z M 433 725 " clip-rule="nonzero"/></clipPath><clipPath id="1b5068168c"><path d="M 398.066406 373.953125 L 838.808594 413.371094 L 801.929688 825.722656 L 361.1875 786.308594 Z M 398.066406 373.953125 " clip-rule="nonzero"/></clipPath><clipPath id="7b80a9b0ae"><path d="M 398.066406 373.953125 L 838.808594 413.371094 L 801.929688 825.722656 L 361.1875 786.308594 Z M 398.066406 373.953125 " clip-rule="nonzero"/></clipPath><clipPath id="98ab18368f"><path d="M 398.066406 373.953125 L 838.808594 413.371094 L 801.929688 825.722656 L 361.1875 786.308594 Z M 398.066406 373.953125 " clip-rule="nonzero"/></clipPath></defs><g clip-path="url(#9ad041137b)"><g clip-path="url(#cb35535f78)"><g clip-path="url(#737b5ffde8)"><g clip-path="url(#df54511c26)"><path fill="#100f0d" d="M 803.410156 559.105469 C 763.238281 584.691406 758.671875 601.023438 803.066406 620.726562 C 736.808594 632.324219 719.511719 647.285156 762.425781 696.144531 C 675.730469 672.761719 649.253906 683.273438 637.800781 767.277344 C 590.660156 696.785156 562.242188 698.929688 494.574219 757.90625 C 511.714844 695.203125 489.605469 689.320312 424.964844 707.910156 C 456.222656 670.765625 444.957031 658.078125 397.628906 652.679688 C 437.796875 627.097656 442.359375 610.765625 397.96875 591.0625 C 464.222656 579.464844 481.527344 564.5 438.605469 515.640625 C 525.300781 539.027344 551.785156 528.511719 563.230469 444.511719 C 610.378906 515 638.789062 512.859375 706.457031 453.878906 C 689.316406 516.585938 711.429688 522.464844 776.074219 503.878906 C 744.808594 541.023438 756.082031 553.710938 803.410156 559.105469 " fill-opacity="1" fill-rule="evenodd"/></g></g></g></g><g clip-path="url(#18f06f8c7d)"><g clip-path="url(#3d4595f979)"><g clip-path="url(#60f68ce5cc)"><g clip-path="url(#f86a1de9d5)"><path fill="#ffffff" d="M 787.582031 562.757812 C 750.539062 586.34375 746.332031 601.402344 787.261719 619.570312 C 726.179688 630.257812 710.226562 644.050781 749.792969 689.105469 C 669.863281 667.542969 645.449219 677.234375 634.890625 754.6875 C 591.425781 689.695312 565.226562 691.671875 502.84375 746.046875 C 518.644531 688.234375 498.257812 682.8125 438.664062 699.949219 C 467.484375 665.699219 457.089844 654.003906 413.457031 649.027344 C 450.496094 625.441406 454.703125 610.382812 413.773438 592.21875 C 474.859375 581.527344 490.804688 567.734375 451.238281 522.683594 C 531.167969 544.242188 555.585938 534.550781 566.140625 457.105469 C 609.605469 522.097656 635.804688 520.113281 698.195312 465.738281 C 682.390625 523.554688 702.777344 528.972656 762.375 511.839844 C 733.554688 546.085938 743.941406 557.785156 787.582031 562.757812 " fill-opacity="1" fill-rule="evenodd"/></g></g></g></g><g clip-path="url(#33c8cec00a)"><g clip-path="url(#e9278e345d)"><g clip-path="url(#1e8f202f66)"><g clip-path="url(#54d5d6ea9f)"><path fill="#666364" d="M 520.765625 491.996094 L 490.296875 454.269531 L 492.890625 452.320312 L 520.765625 491.996094 " fill-opacity="1" fill-rule="nonzero"/></g></g></g></g><g clip-path="url(#4c28d4cdd0)"><g clip-path="url(#dfb8ec4425)"><g clip-path="url(#4697988001)"><g clip-path="url(#55083c10ec)"><path fill="#666364" d="M 527.453125 453.148438 L 506.027344 403.117188 L 509.046875 401.933594 L 527.453125 453.148438 " fill-opacity="1" fill-rule="nonzero"/></g></g></g></g><g clip-path="url(#57450430c7)"><g clip-path="url(#62a5f88d31)"><g clip-path="url(#c09029f5da)"><g clip-path="url(#94e497b6d6)"><path fill="#666364" d="M 641.851562 468.164062 L 662.085938 402.097656 L 665.316406 402.386719 L 641.851562 468.164062 " fill-opacity="1" fill-rule="nonzero"/></g></g></g></g><g clip-path="url(#6066047ad9)"><g clip-path="url(#b82f42fa3e)"><g clip-path="url(#45081a9722)"><g clip-path="url(#0af3443fe0)"><path fill="#666364" d="M 636.230469 472.203125 L 653.660156 396.800781 L 656.804688 397.597656 L 636.230469 472.203125 " fill-opacity="1" fill-rule="nonzero"/></g></g></g></g><g clip-path="url(#d401814ed1)"><g clip-path="url(#ddd3428778)"><g clip-path="url(#3dc7ac1fe9)"><g clip-path="url(#37840d9512)"><path fill="#666364" d="M 723.84375 492.035156 L 766.875 452.921875 L 768.988281 455.375 L 723.84375 492.035156 " fill-opacity="1" fill-rule="nonzero"/></g></g></g></g><g clip-path="url(#6d8c77ee5f)"><g clip-path="url(#52a4642d2c)"><g clip-path="url(#26e371b3fd)"><g clip-path="url(#52fd649f0d)"><path fill="#666364" d="M 707.894531 778.796875 L 673.378906 718.746094 L 710.667969 777.121094 L 707.894531 778.796875 " fill-opacity="1" fill-rule="nonzero"/></g></g></g></g><g clip-path="url(#58f90a042e)"><g clip-path="url(#56a431e47a)"><g clip-path="url(#e93a58832d)"><g clip-path="url(#b5587c9851)"><path fill="#666364" d="M 812.738281 691.40625 L 761.425781 669.507812 L 813.925781 688.386719 L 812.738281 691.40625 " fill-opacity="1" fill-rule="nonzero"/></g></g></g></g><g clip-path="url(#16f6adf35c)"><g clip-path="url(#e1d96ccde1)"><g clip-path="url(#207181bd92)"><g clip-path="url(#fef15a207c)"><path fill="#666364" d="M 750.660156 774.863281 L 686.105469 699.84375 L 753.085938 772.714844 L 750.660156 774.863281 " fill-opacity="1" fill-rule="nonzero"/></g></g></g></g><g clip-path="url(#061a95b1c4)"><g clip-path="url(#7c730b5f51)"><g clip-path="url(#f628ee2289)"><g clip-path="url(#a4338080ab)"><path fill="#666364" d="M 736.421875 739.886719 L 702.148438 703.75 L 738.699219 737.578125 L 736.421875 739.886719 " fill-opacity="1" fill-rule="nonzero"/></g></g></g></g><g clip-path="url(#d4b44efd4f)"><g clip-path="url(#1fea382dc7)"><g clip-path="url(#36c24ed036)"><g clip-path="url(#71665bccc5)"><path fill="#666364" d="M 593.628906 807.105469 L 594.519531 727.59375 L 596.871094 807.074219 L 593.628906 807.105469 " fill-opacity="1" fill-rule="nonzero"/></g></g></g></g><g clip-path="url(#dee5fe2eb5)"><g clip-path="url(#6ac19c9b54)"><g clip-path="url(#a5c0c3812c)"><g clip-path="url(#099a2d6913)"><path fill="#666364" d="M 581.03125 780.097656 L 577.804688 779.730469 L 585.082031 729.710938 L 581.03125 780.097656 " fill-opacity="1" fill-rule="nonzero"/></g></g></g></g><g clip-path="url(#10af2bd37d)"><g clip-path="url(#6cab8ba390)"><g clip-path="url(#a5e8433654)"><g clip-path="url(#382543e8db)"><path fill="#666364" d="M 438.375 784.230469 L 435.894531 782.144531 L 491.65625 718.417969 L 438.375 784.230469 " fill-opacity="1" fill-rule="nonzero"/></g></g></g></g><g clip-path="url(#90ec9ce941)"><g clip-path="url(#1cf6009a00)"><g clip-path="url(#40c39b79cb)"><g clip-path="url(#9bdb82ea89)"><path fill="#666364" d="M 374.796875 698.773438 L 373.496094 695.800781 L 422.144531 676.238281 L 374.796875 698.773438 " fill-opacity="1" fill-rule="nonzero"/></g></g></g></g><g clip-path="url(#ade99daeb9)"><g clip-path="url(#2cbb08f469)"><g clip-path="url(#1fcca956dd)"><g clip-path="url(#75435b2020)"><path fill="#666364" d="M 441 552.195312 L 384.304688 532.207031 L 385.464844 529.183594 L 441 552.195312 " fill-opacity="1" fill-rule="nonzero"/></g></g></g></g><g clip-path="url(#b54e3441d2)"><g clip-path="url(#af90433ecf)"><g clip-path="url(#880f7ade28)"><g clip-path="url(#909dbd14db)"><path fill="#666364" d="M 429.566406 523.71875 L 386.800781 501.878906 L 388.375 499.050781 L 429.566406 523.71875 " fill-opacity="1" fill-rule="nonzero"/></g></g></g></g><g clip-path="url(#864134d82d)"><g clip-path="url(#4047d2c17c)"><g clip-path="url(#2296dc8771)"><g clip-path="url(#8a86dee7bb)"><path fill="#666364" d="M 532.886719 490.6875 L 469.183594 390.027344 L 471.945312 388.335938 L 532.886719 490.6875 " fill-opacity="1" fill-rule="nonzero"/></g></g></g></g><g clip-path="url(#9eb64e23a9)"><g clip-path="url(#ff9fdc9247)"><g clip-path="url(#1d9372e3c7)"><g clip-path="url(#103f3f1e9a)"><path fill="#f4d906" d="M 773.980469 501.300781 L 770.8125 488.847656 L 759.414062 487.800781 L 768.855469 481.152344 L 765.691406 468.699219 L 774.691406 477.042969 L 784.128906 470.402344 L 780.25 482.199219 L 789.253906 490.542969 L 777.855469 489.5 L 773.980469 501.300781 " fill-opacity="1" fill-rule="evenodd"/></g></g></g></g><g clip-path="url(#06d4565150)"><g clip-path="url(#3f6dae2cef)"><g clip-path="url(#bada5efafb)"><g clip-path="url(#1421df15a8)"><path fill="#191716" d="M 773.984375 501.160156 C 774.574219 499.214844 775.179688 497.277344 775.78125 495.339844 C 776.390625 493.355469 777.023438 491.378906 777.644531 489.398438 L 777.699219 489.230469 L 777.867188 489.246094 L 783.566406 489.695312 L 789.265625 490.175781 L 789.050781 490.832031 L 784.523438 486.691406 L 780.015625 482.53125 L 779.792969 482.324219 L 779.890625 482.03125 L 781.816406 476.128906 L 783.769531 470.234375 L 784.34375 470.765625 C 782.765625 471.867188 781.195312 472.972656 779.609375 474.0625 C 778.027344 475.15625 776.445312 476.25 774.859375 477.332031 L 774.675781 477.457031 L 774.503906 477.296875 L 765.53125 468.917969 L 765.933594 468.636719 L 769.058594 481.097656 L 769.097656 481.265625 L 768.976562 481.355469 L 759.503906 487.949219 L 759.421875 487.625 L 770.816406 488.742188 L 770.886719 488.75 L 770.90625 488.824219 Z M 773.972656 501.429688 L 770.71875 488.875 L 770.808594 488.957031 L 759.410156 487.976562 L 758.929688 487.933594 L 759.328125 487.648438 L 768.738281 480.949219 L 768.65625 481.207031 L 765.441406 468.761719 L 765.222656 467.910156 L 765.84375 468.480469 L 774.875 476.789062 L 774.523438 476.757812 C 776.078125 475.621094 777.644531 474.503906 779.207031 473.378906 C 780.773438 472.253906 782.347656 471.148438 783.914062 470.03125 L 784.890625 469.332031 L 784.488281 470.5625 L 782.566406 476.472656 L 780.617188 482.371094 L 780.488281 481.875 L 784.980469 486.050781 L 789.460938 490.261719 L 790.269531 491.023438 L 789.246094 490.921875 L 783.546875 490.351562 L 777.851562 489.75 L 778.070312 489.59375 C 777.398438 491.550781 776.738281 493.511719 776.054688 495.460938 C 775.375 497.417969 774.703125 499.371094 774.011719 501.320312 L 773.972656 501.429688 " fill-opacity="1" fill-rule="nonzero"/></g></g></g></g><g clip-path="url(#a3882fe7d6)"><g clip-path="url(#9e475168c9)"><g clip-path="url(#7170524b18)"><g clip-path="url(#5fbd1e79a7)"><path fill="#f4d906" d="M 488.742188 476.390625 L 476.371094 479.871094 L 475.617188 491.285156 L 468.71875 482.023438 L 456.34375 485.507812 L 464.460938 476.304688 L 457.566406 467.039062 L 469.476562 470.613281 L 477.589844 461.402344 L 476.835938 472.820312 L 488.742188 476.390625 " fill-opacity="1" fill-rule="evenodd"/></g></g></g></g><g clip-path="url(#d582cc5199)"><g clip-path="url(#58bbe33769)"><g clip-path="url(#7cd6f90dd2)"><g clip-path="url(#efa707b9ce)"><path fill="#191716" d="M 488.605469 476.390625 C 486.644531 475.847656 484.6875 475.292969 482.726562 474.742188 C 480.726562 474.183594 478.738281 473.601562 476.742188 473.03125 L 476.574219 472.984375 L 476.582031 472.816406 L 476.882812 467.113281 L 477.214844 461.410156 L 477.875 461.605469 L 473.859375 466.230469 L 469.808594 470.84375 L 469.609375 471.070312 L 469.316406 470.980469 L 463.355469 469.207031 L 457.40625 467.40625 L 457.925781 466.820312 C 459.070312 468.367188 460.21875 469.910156 461.347656 471.464844 C 462.480469 473.019531 463.621094 474.566406 464.742188 476.125 L 464.875 476.308594 L 464.71875 476.480469 L 456.5625 485.65625 L 456.273438 485.261719 L 468.660156 481.824219 L 468.832031 481.777344 L 468.921875 481.902344 L 475.765625 491.191406 L 475.4375 491.28125 L 476.261719 479.867188 L 476.265625 479.800781 L 476.34375 479.777344 Z M 488.875 476.390625 L 476.394531 479.964844 L 476.480469 479.871094 L 475.789062 491.289062 L 475.757812 491.769531 L 475.464844 491.378906 L 468.519531 482.148438 L 468.777344 482.226562 L 456.414062 485.753906 L 455.566406 485.996094 L 456.125 485.359375 L 464.195312 476.125 L 464.179688 476.476562 C 463 474.949219 461.839844 473.414062 460.675781 471.882812 C 459.507812 470.355469 458.359375 468.804688 457.203125 467.265625 L 456.480469 466.308594 L 457.722656 466.675781 L 463.683594 468.453125 L 469.632812 470.242188 L 469.140625 470.378906 L 473.207031 465.785156 L 477.296875 461.207031 L 478.039062 460.378906 L 477.960938 461.40625 L 477.539062 467.113281 L 477.089844 472.820312 L 476.925781 472.601562 C 478.902344 473.222656 480.878906 473.832031 482.847656 474.464844 C 484.820312 475.09375 486.792969 475.714844 488.761719 476.355469 L 488.875 476.390625 " fill-opacity="1" fill-rule="nonzero"/></g></g></g></g><g clip-path="url(#d8a8432371)"><g clip-path="url(#fe75852775)"><g clip-path="url(#8f6618f58d)"><g clip-path="url(#3df7ef59d1)"><path fill="#f4d906" d="M 409.636719 706.46875 L 405.945312 722.289062 L 418.132812 730.089844 L 403.664062 732.066406 L 399.972656 747.886719 L 394.722656 733.285156 L 380.253906 735.257812 L 391.476562 724.265625 L 386.226562 709.664062 L 398.414062 717.464844 L 409.636719 706.46875 " fill-opacity="1" fill-rule="evenodd"/></g></g></g></g><g clip-path="url(#54a4201493)"><g clip-path="url(#fdfa2e54c1)"><g clip-path="url(#dd92031ebf)"><g clip-path="url(#dbb0d89cc4)"><path fill="#191716" d="M 409.550781 706.625 C 407.753906 708.460938 405.949219 710.289062 404.140625 712.117188 C 402.300781 713.992188 400.445312 715.839844 398.59375 717.699219 L 398.4375 717.859375 L 398.257812 717.742188 L 392.121094 713.929688 L 386 710.074219 L 386.621094 709.464844 L 389.300781 716.738281 L 391.9375 724.035156 L 392.066406 724.390625 L 391.789062 724.664062 L 386.183594 730.175781 L 380.558594 735.660156 L 380.222656 734.722656 C 382.636719 734.410156 385.050781 734.074219 387.460938 733.777344 C 389.871094 733.46875 392.285156 733.152344 394.699219 732.867188 L 394.980469 732.832031 L 395.078125 733.105469 L 400.273438 747.734375 L 399.65625 747.816406 L 403.402344 732.007812 L 403.453125 731.796875 L 403.648438 731.765625 L 418.117188 729.871094 L 418.023438 730.28125 L 405.878906 722.410156 L 405.804688 722.359375 L 405.824219 722.257812 Z M 409.71875 706.324219 L 406.066406 722.316406 L 406.011719 722.164062 L 418.238281 729.894531 L 418.757812 730.222656 L 418.144531 730.3125 L 403.679688 732.359375 L 403.921875 732.125 L 400.285156 747.957031 L 400.035156 749.046875 L 399.667969 748.039062 L 394.363281 733.464844 L 394.742188 733.707031 C 392.332031 734.078125 389.921875 734.421875 387.511719 734.773438 C 385.101562 735.136719 382.691406 735.457031 380.28125 735.800781 L 378.777344 736.011719 L 379.945312 734.867188 L 385.542969 729.351562 L 391.164062 723.863281 L 391.019531 724.496094 L 388.40625 717.1875 L 385.832031 709.863281 L 385.363281 708.535156 L 386.453125 709.246094 L 392.523438 713.203125 L 398.570312 717.1875 L 398.226562 717.234375 C 400.121094 715.429688 402.007812 713.609375 403.910156 711.816406 C 405.804688 710.015625 407.699219 708.210938 409.605469 706.425781 L 409.71875 706.324219 " fill-opacity="1" fill-rule="nonzero"/></g></g></g></g><g clip-path="url(#56f9d75942)"><g clip-path="url(#b68e44e318)"><g clip-path="url(#8ad15ab2ff)"><g clip-path="url(#b8ac7c26dd)"><path fill="#f4d906" d="M 445.902344 725.988281 L 445.128906 733.394531 L 451.113281 736.246094 L 444.648438 737.972656 L 443.875 745.375 L 440.652344 739.035156 L 434.1875 740.757812 L 438.664062 735.117188 L 435.445312 728.777344 L 441.429688 731.628906 L 445.902344 725.988281 " fill-opacity="1" fill-rule="evenodd"/></g></g></g></g><g clip-path="url(#9683366935)"><g clip-path="url(#1b5068168c)"><g clip-path="url(#7b80a9b0ae)"><g clip-path="url(#98ab18368f)"><path fill="#191716" d="M 445.875 726.066406 C 445.164062 727.007812 444.445312 727.9375 443.730469 728.875 C 443 729.828125 442.257812 730.773438 441.523438 731.726562 L 441.460938 731.804688 L 441.375 731.765625 L 438.367188 730.382812 L 435.363281 728.976562 L 435.609375 728.664062 L 437.242188 731.820312 L 438.859375 734.984375 L 438.9375 735.140625 L 438.828125 735.28125 L 436.59375 738.105469 L 434.351562 740.914062 L 434.144531 740.511719 C 435.222656 740.230469 436.304688 739.941406 437.378906 739.667969 C 438.460938 739.390625 439.535156 739.113281 440.621094 738.84375 L 440.746094 738.8125 L 440.804688 738.933594 L 444 745.285156 L 443.726562 745.359375 L 444.527344 737.957031 L 444.539062 737.855469 L 444.625 737.839844 L 451.097656 736.148438 L 451.074219 736.34375 L 445.105469 733.453125 L 445.066406 733.433594 L 445.074219 733.386719 Z M 445.929688 725.917969 L 445.1875 733.398438 L 445.152344 733.332031 L 451.152344 736.152344 L 451.402344 736.273438 L 451.128906 736.347656 L 444.671875 738.101562 L 444.765625 737.984375 L 444.019531 745.386719 L 443.964844 745.894531 L 443.742188 745.457031 L 440.5 739.136719 L 440.6875 739.222656 C 439.613281 739.527344 438.535156 739.824219 437.460938 740.121094 C 436.386719 740.417969 435.304688 740.703125 434.234375 741 L 433.558594 741.183594 L 434.027344 740.59375 L 436.253906 737.769531 L 438.5 734.953125 L 438.46875 735.246094 L 436.863281 732.078125 L 435.273438 728.886719 L 434.984375 728.3125 L 435.527344 728.578125 L 438.507812 730.027344 L 441.484375 731.496094 L 441.332031 731.535156 C 442.089844 730.609375 442.84375 729.671875 443.605469 728.75 C 444.367188 727.820312 445.121094 726.898438 445.886719 725.972656 L 445.929688 725.917969 " fill-opacity="1" fill-rule="nonzero"/></g></g></g></g><g fill="#e70e17" fill-opacity="1"><g transform="translate(496.108669, 653.362621)"><g><path d="M 9.5 -1.4375 C 9.851562 -9.425781 10.160156 -17.300781 10.421875 -25.0625 C 10.523438 -28.332031 10.613281 -31.738281 10.6875 -35.28125 C 10.769531 -38.820312 10.835938 -42.3125 10.890625 -45.75 C 10.941406 -49.1875 10.941406 -52.503906 10.890625 -55.703125 C 10.835938 -58.910156 10.773438 -61.84375 10.703125 -64.5 C 9.054688 -64.4375 7.410156 -64.234375 5.765625 -63.890625 C 4.128906 -63.554688 2.46875 -63.503906 0.78125 -63.734375 C 0.664062 -64.867188 0.488281 -66.175781 0.25 -67.65625 C 0.0078125 -69.132812 -0.191406 -70.613281 -0.359375 -72.09375 C -0.554688 -73.71875 -0.769531 -75.445312 -1 -77.28125 C 0.84375 -77.445312 2.679688 -77.644531 4.515625 -77.875 C 6.359375 -78.101562 8.191406 -78.367188 10.015625 -78.671875 C 13.609375 -79.253906 17.054688 -79.898438 20.359375 -80.609375 C 23.671875 -81.328125 26.726562 -82.039062 29.53125 -82.75 C 32.332031 -83.46875 35.082031 -84.222656 37.78125 -85.015625 L 37.546875 -79.140625 C 37.441406 -77.460938 37.367188 -75.753906 37.328125 -74.015625 C 37.296875 -72.273438 37.238281 -70.789062 37.15625 -69.5625 C 35.664062 -68.882812 34.144531 -68.328125 32.59375 -67.890625 C 31.050781 -67.453125 29.523438 -66.96875 28.015625 -66.4375 C 27.921875 -63.96875 27.828125 -61.226562 27.734375 -58.21875 C 27.648438 -55.21875 27.597656 -52.109375 27.578125 -48.890625 C 27.566406 -45.679688 27.578125 -42.421875 27.609375 -39.109375 C 27.640625 -35.804688 27.644531 -32.628906 27.625 -29.578125 C 27.644531 -22.453125 27.765625 -15.085938 27.984375 -7.484375 Z M 9.5 -1.4375 "/></g></g></g><g fill="#e70e17" fill-opacity="1"><g transform="translate(534.046109, 647.188942)"><g><path d="M 49.734375 -66.625 C 50.671875 -60.863281 50.9375 -55.332031 50.53125 -50.03125 C 50.132812 -44.738281 49.265625 -39.800781 47.921875 -35.21875 C 46.578125 -30.644531 44.820312 -26.46875 42.65625 -22.6875 C 40.488281 -18.90625 38.125 -15.597656 35.5625 -12.765625 C 33 -9.929688 30.300781 -7.648438 27.46875 -5.921875 C 24.644531 -4.203125 21.867188 -3.125 19.140625 -2.6875 C 16.816406 -2.300781 14.632812 -2.394531 12.59375 -2.96875 C 10.5625 -3.539062 8.703125 -4.570312 7.015625 -6.0625 C 5.328125 -7.550781 3.859375 -9.582031 2.609375 -12.15625 C 1.367188 -14.738281 0.4375 -17.925781 -0.1875 -21.71875 C -0.820312 -25.644531 -1 -29.867188 -0.71875 -34.390625 C -0.445312 -38.910156 0.179688 -43.445312 1.171875 -48 C 2.160156 -52.5625 3.566406 -56.972656 5.390625 -61.234375 C 7.222656 -65.503906 9.375 -69.375 11.84375 -72.84375 C 14.3125 -76.3125 17.085938 -79.195312 20.171875 -81.5 C 23.253906 -83.8125 26.625 -85.265625 30.28125 -85.859375 C 33.445312 -86.367188 36.171875 -86.140625 38.453125 -85.171875 C 40.734375 -84.210938 42.617188 -82.789062 44.109375 -80.90625 C 45.609375 -79.019531 46.816406 -76.816406 47.734375 -74.296875 C 48.648438 -71.785156 49.316406 -69.226562 49.734375 -66.625 Z M 15.078125 -27.015625 C 15.203125 -26.242188 15.472656 -25.457031 15.890625 -24.65625 C 16.304688 -23.851562 16.8125 -23.175781 17.40625 -22.625 C 18 -22.082031 18.703125 -21.640625 19.515625 -21.296875 C 20.328125 -20.960938 21.15625 -20.863281 22 -21 C 25.164062 -21.507812 27.800781 -23.050781 29.90625 -25.625 C 32.007812 -28.207031 33.609375 -31.210938 34.703125 -34.640625 C 35.804688 -38.066406 36.503906 -41.640625 36.796875 -45.359375 C 37.097656 -49.085938 37.007812 -52.425781 36.53125 -55.375 C 36.394531 -56.21875 36.195312 -57.125 35.9375 -58.09375 C 35.675781 -59.0625 35.316406 -59.941406 34.859375 -60.734375 C 34.398438 -61.535156 33.785156 -62.175781 33.015625 -62.65625 C 32.242188 -63.144531 31.300781 -63.300781 30.1875 -63.125 C 27.9375 -62.75 25.953125 -61.84375 24.234375 -60.40625 C 22.523438 -58.976562 21.066406 -57.210938 19.859375 -55.109375 C 18.648438 -53.003906 17.675781 -50.679688 16.9375 -48.140625 C 16.195312 -45.609375 15.617188 -43.0625 15.203125 -40.5 C 14.785156 -37.9375 14.59375 -35.46875 14.625 -33.09375 C 14.65625 -30.726562 14.804688 -28.703125 15.078125 -27.015625 Z M 15.078125 -27.015625 "/></g></g></g><g fill="#e70e17" fill-opacity="1"><g transform="translate(585.788575, 638.768728)"><g><path d="M -0.3125 0.15625 C 0.269531 -9.675781 0.765625 -19.273438 1.171875 -28.640625 C 1.328125 -32.554688 1.484375 -36.691406 1.640625 -41.046875 C 1.796875 -45.398438 1.929688 -49.675781 2.046875 -53.875 C 2.160156 -58.082031 2.257812 -62.140625 2.34375 -66.046875 C 2.425781 -69.953125 2.457031 -73.523438 2.4375 -76.765625 C 4.363281 -77.734375 6.273438 -78.601562 8.171875 -79.375 C 10.066406 -80.15625 12.019531 -80.890625 14.03125 -81.578125 C 16.050781 -82.273438 17.976562 -82.769531 19.8125 -83.0625 C 22.96875 -83.570312 25.703125 -83.472656 28.015625 -82.765625 C 30.328125 -82.054688 32.296875 -80.914062 33.921875 -79.34375 C 35.554688 -77.78125 36.847656 -75.847656 37.796875 -73.546875 C 38.742188 -71.253906 39.4375 -68.738281 39.875 -66 C 40.519531 -62.0625 40.421875 -58.144531 39.578125 -54.25 C 38.734375 -50.363281 37.332031 -46.800781 35.375 -43.5625 C 33.414062 -40.332031 31.003906 -37.617188 28.140625 -35.421875 C 25.285156 -33.222656 22.171875 -31.851562 18.796875 -31.3125 L 17.640625 -31.109375 C 17.472656 -28.628906 17.375 -25.941406 17.34375 -23.046875 C 17.3125 -20.160156 17.316406 -17.492188 17.359375 -15.046875 C 17.316406 -12.160156 17.316406 -9.28125 17.359375 -6.40625 Z M 18.515625 -69.765625 C 18.484375 -65.003906 18.421875 -60.488281 18.328125 -56.21875 C 18.234375 -51.945312 18.113281 -47.378906 17.96875 -42.515625 C 19.039062 -42.984375 20.109375 -43.828125 21.171875 -45.046875 C 22.234375 -46.265625 23.15625 -47.78125 23.9375 -49.59375 C 24.71875 -51.414062 25.25 -53.46875 25.53125 -55.75 C 25.8125 -58.039062 25.757812 -60.378906 25.375 -62.765625 C 24.945312 -65.367188 24.046875 -67.242188 22.671875 -68.390625 C 21.304688 -69.535156 19.921875 -69.992188 18.515625 -69.765625 Z M 18.515625 -69.765625 "/></g></g></g><g fill="#e70e17" fill-opacity="1"><g transform="translate(625.517503, 632.303514)"><g><path d="M 16.3125 -4.8125 C 15.675781 -4.71875 14.457031 -4.429688 12.65625 -3.953125 C 10.851562 -3.484375 8.988281 -2.960938 7.0625 -2.390625 C 5.132812 -1.828125 3.398438 -1.3125 1.859375 -0.84375 C 0.316406 -0.382812 -0.515625 -0.101562 -0.640625 0 C -0.296875 -3.164062 -0.00390625 -6.660156 0.234375 -10.484375 C 0.472656 -14.304688 0.703125 -18.304688 0.921875 -22.484375 C 1.148438 -26.671875 1.332031 -30.90625 1.46875 -35.1875 C 1.601562 -39.46875 1.738281 -43.597656 1.875 -47.578125 C 2.175781 -56.859375 2.398438 -66.378906 2.546875 -76.140625 L 18.546875 -81.46875 C 18.253906 -71.75 17.9375 -62.207031 17.59375 -52.84375 C 17.4375 -48.851562 17.289062 -44.71875 17.15625 -40.4375 C 17.03125 -36.15625 16.925781 -31.914062 16.84375 -27.71875 C 16.769531 -23.53125 16.675781 -19.457031 16.5625 -15.5 C 16.445312 -11.550781 16.363281 -7.988281 16.3125 -4.8125 Z M 16.3125 -4.8125 "/></g></g></g><g fill="#e70e17" fill-opacity="1"><g transform="translate(646.383081, 628.907993)"><g><path d="M 0.75 -0.015625 C 1.257812 -10.203125 1.675781 -20.078125 2 -29.640625 C 2.050781 -33.765625 2.113281 -38.03125 2.1875 -42.4375 C 2.257812 -46.84375 2.285156 -51.207031 2.265625 -55.53125 C 2.242188 -59.851562 2.175781 -64.046875 2.0625 -68.109375 C 1.945312 -72.171875 1.765625 -75.835938 1.515625 -79.109375 C 3.148438 -79.222656 4.992188 -79.394531 7.046875 -79.625 C 9.097656 -79.863281 11.019531 -80.050781 12.8125 -80.1875 C 14.9375 -80.382812 17.050781 -80.65625 19.15625 -81 C 19.144531 -80.707031 19.128906 -80.164062 19.109375 -79.375 C 19.085938 -78.582031 19.054688 -77.625 19.015625 -76.5 C 18.984375 -75.375 18.953125 -74.125 18.921875 -72.75 C 18.898438 -71.375 18.859375 -69.992188 18.796875 -68.609375 C 18.734375 -65.429688 18.664062 -61.851562 18.59375 -57.875 L 19.203125 -58.09375 C 19.734375 -59.320312 20.484375 -61.039062 21.453125 -63.25 C 22.421875 -65.46875 23.425781 -67.816406 24.46875 -70.296875 C 25.519531 -72.773438 26.539062 -75.160156 27.53125 -77.453125 C 28.519531 -79.742188 29.351562 -81.703125 30.03125 -83.328125 C 33.507812 -84.171875 36.972656 -85.050781 40.421875 -85.96875 C 43.878906 -86.894531 47.316406 -87.929688 50.734375 -89.078125 C 48.160156 -84.097656 45.675781 -79.222656 43.28125 -74.453125 C 42.238281 -72.398438 41.191406 -70.273438 40.140625 -68.078125 C 39.097656 -65.890625 38.0625 -63.738281 37.03125 -61.625 C 36 -59.519531 35.046875 -57.488281 34.171875 -55.53125 C 33.296875 -53.582031 32.523438 -51.800781 31.859375 -50.1875 C 34.554688 -43.34375 37.5 -36.789062 40.6875 -30.53125 C 43.875 -24.269531 47.113281 -17.867188 50.40625 -11.328125 C 48.78125 -11.140625 47.117188 -10.925781 45.421875 -10.6875 C 43.734375 -10.445312 42.078125 -10.195312 40.453125 -9.9375 C 38.421875 -9.601562 36.457031 -9.265625 34.5625 -8.921875 C 32.675781 -8.578125 30.71875 -8.203125 28.6875 -7.796875 C 27.320312 -12.265625 25.859375 -16.953125 24.296875 -21.859375 C 22.742188 -26.765625 21.273438 -31.445312 19.890625 -35.90625 L 18.359375 -33.375 C 18.222656 -31.195312 18.101562 -28.515625 18 -25.328125 C 17.90625 -22.140625 17.8125 -19.054688 17.71875 -16.078125 C 17.632812 -12.597656 17.535156 -9.015625 17.421875 -5.328125 Z M 0.75 -0.015625 "/></g></g></g><g fill="#e70e17" fill-opacity="1"><g transform="translate(694.882201, 621.015579)"><g/></g></g></svg>