<svg xmlns="http://www.w3.org/2000/svg" xmlns:xlink="http://www.w3.org/1999/xlink" width="1600" zoomAndPan="magnify" viewBox="0 0 1200 1199.999942" height="1600" preserveAspectRatio="xMidYMid meet" version="1.0"><defs><filter x="0%" y="0%" width="100%" height="100%" id="32bbcce6a0"><feColorMatrix values="0 0 0 0 1 0 0 0 0 1 0 0 0 0 1 0 0 0 1 0" color-interpolation-filters="sRGB"/></filter><mask id="1518d741d5"><g filter="url(#32bbcce6a0)"><rect x="-120" width="1440" fill="#000000" y="-119.999994" height="1439.999931" fill-opacity="0.57"/></g></mask><clipPath id="bdd0b0af53"><path d="M 1 1 L 826 1 L 826 486.292969 L 1 486.292969 Z M 1 1 " clip-rule="nonzero"/></clipPath><clipPath id="f7d268d472"><rect x="0" width="826" y="0" height="487"/></clipPath></defs><g mask="url(#1518d741d5)"><g transform="matrix(1, 0, 0, 1, 254, 404)"><g clip-path="url(#f7d268d472)"><g clip-path="url(#bdd0b0af53)"><path fill="#ca2624" d="M 601.785156 405.859375 C 600.957031 406.792969 599.921875 407.929688 598.78125 408.34375 C 596.296875 409.171875 593.816406 410 591.226562 410.3125 C 584.601562 411.140625 578.082031 410.207031 571.664062 408.34375 C 546.507812 400.890625 522.390625 391.160156 500.652344 376.046875 C 483.675781 364.246094 467.011719 352.238281 451.277344 338.785156 C 433.578125 323.671875 415.460938 309.179688 397.65625 294.066406 C 388.652344 286.40625 380.0625 278.230469 371.261719 270.257812 C 370.019531 269.121094 368.675781 267.878906 366.707031 266.117188 C 363.914062 269.429688 361.53125 272.226562 359.152344 275.019531 C 336.792969 300.484375 313.296875 324.707031 286.589844 345.617188 C 277.789062 352.550781 268.578125 358.863281 259.363281 365.28125 C 252.738281 369.941406 246.011719 374.496094 239.285156 379.050781 C 207.503906 400.683594 173.347656 417.246094 136.804688 429.148438 C 133.492188 430.183594 130.078125 431.011719 126.660156 431.945312 C 124.074219 432.667969 121.382812 432.359375 118.898438 431.53125 C 115.6875 430.496094 114.550781 427.390625 116.722656 424.800781 C 118.378906 422.835938 120.347656 420.972656 122.625 419.625 C 125.832031 417.765625 129.351562 416.316406 132.769531 414.96875 C 145.398438 409.898438 158.128906 405.03125 170.65625 399.753906 C 192.082031 390.644531 212.578125 379.566406 231.933594 366.628906 C 243.632812 358.863281 255.328125 351.101562 267.023438 343.234375 C 282.550781 332.78125 297.148438 321.1875 310.707031 308.351562 C 320.542969 298.929688 330.375 289.511719 339.898438 279.886719 C 345.488281 274.296875 350.558594 268.1875 355.632812 262.183594 C 357.496094 260.011719 358.839844 257.527344 360.289062 255.042969 C 362.566406 251.417969 365.363281 250.382812 369.191406 252.144531 C 370.746094 252.867188 372.296875 253.902344 373.644531 254.9375 C 376.542969 257.214844 379.542969 259.597656 382.339844 262.082031 C 392.6875 271.292969 403.660156 279.574219 414.632812 288.0625 C 431.816406 301.3125 449 314.664062 465.664062 328.640625 C 483.054688 343.132812 501.480469 356.277344 520.320312 368.699219 C 534.292969 377.910156 549.511719 384.742188 564.625 391.886719 C 569.800781 394.371094 574.976562 396.542969 580.253906 398.71875 C 585.949219 401.097656 591.847656 402.652344 598.160156 402.546875 C 598.988281 402.546875 599.921875 402.652344 600.75 402.753906 C 601.992188 402.960938 602.714844 404.824219 601.785156 405.859375 Z M 821.851562 220.570312 C 821.230469 220.46875 820.507812 220.46875 819.886719 220.363281 C 811.398438 219.433594 803.011719 217.570312 794.941406 214.671875 C 788.9375 212.5 782.933594 210.429688 776.929688 208.359375 C 755.914062 201.007812 735.832031 191.898438 717.097656 179.789062 C 703.125 170.78125 689.148438 161.570312 675.175781 152.5625 C 654.371094 139.316406 635.53125 123.476562 617.726562 106.605469 C 608.824219 98.117188 600.335938 89.214844 592.882812 79.378906 C 591.125 77.101562 589.261719 74.929688 587.398438 72.859375 C 586.363281 71.722656 585.328125 70.582031 584.1875 69.546875 C 579.632812 65.613281 575.390625 65.925781 571.664062 70.480469 C 570.421875 72.03125 569.386719 73.6875 568.246094 75.34375 C 562.65625 83.519531 556.550781 91.179688 549.511719 98.21875 C 535.847656 111.882812 521.769531 125.03125 506.65625 137.140625 C 470.53125 166.433594 431.402344 190.242188 387.824219 206.804688 C 371.988281 212.808594 355.941406 218.085938 339.484375 221.8125 C 336.6875 222.433594 333.996094 223.46875 331.410156 224.402344 C 329.855469 224.917969 329.546875 226.886719 330.683594 228.230469 C 331.203125 228.851562 331.925781 229.472656 332.546875 229.992188 C 335.136719 231.957031 338.035156 232.476562 341.242188 232.371094 C 349.835938 232.0625 358.21875 230.199219 366.398438 227.714844 C 397.761719 218.085938 427.78125 205.046875 455.832031 188.070312 C 489.578125 167.675781 520.320312 143.351562 548.0625 115.195312 C 558 105.15625 567.417969 94.804688 575.390625 83.210938 C 576.011719 82.382812 576.734375 81.65625 577.460938 80.828125 C 579.945312 82.175781 580.980469 84.453125 582.324219 86.417969 C 589.261719 96.5625 597.332031 105.878906 606.027344 114.574219 C 620.003906 128.652344 634.804688 141.695312 651.160156 152.769531 C 668.34375 164.570312 685.941406 175.855469 703.433594 187.136719 C 710.472656 191.691406 717.71875 195.625 724.964844 199.765625 C 733.347656 204.527344 742.148438 208.566406 751.152344 211.980469 C 765.128906 217.15625 779.414062 221.398438 793.90625 224.917969 C 801.148438 226.78125 808.601562 227.402344 816.054688 226.886719 C 818.023438 226.78125 819.988281 226.472656 821.851562 225.953125 C 823.507812 225.539062 825.269531 225.023438 825.578125 222.847656 C 825.992188 221.605469 824.957031 220.984375 821.851562 220.570312 Z M 56.582031 154.945312 C 60.722656 155.460938 64.863281 154.945312 69.003906 154.011719 C 79.667969 151.425781 90.121094 148.007812 100.164062 143.558594 C 121.589844 134.140625 141.050781 121.511719 159.683594 107.535156 C 174.277344 96.5625 187.941406 84.554688 201.5 72.34375 C 216.925781 58.574219 231.519531 44.082031 244.355469 27.832031 C 247.566406 23.691406 251.085938 19.757812 254.707031 15.410156 C 255.636719 16.546875 256.050781 16.960938 256.464844 17.582031 C 261.226562 26.070312 267.335938 33.523438 273.960938 40.5625 C 277.167969 43.875 280.171875 47.394531 283.277344 50.707031 C 292.386719 60.230469 301.082031 70.273438 312.054688 77.722656 C 327.890625 88.386719 344.140625 98.324219 360.289062 108.570312 C 362.464844 110.019531 364.949219 111.160156 367.328125 112.195312 C 376.023438 116.335938 384.71875 120.476562 393.621094 124.410156 C 411.839844 132.378906 431.09375 136.832031 450.863281 138.589844 C 457.175781 139.109375 463.59375 139.523438 469.910156 137.96875 C 472.601562 137.347656 473.945312 136.210938 473.636719 135.070312 C 473.222656 133.207031 471.566406 133 470.117188 132.691406 C 469.289062 132.484375 468.355469 132.378906 467.527344 132.171875 C 461.523438 130.722656 455.523438 129.480469 449.621094 127.929688 C 415.359375 118.820312 384.304688 102.671875 354.078125 84.453125 C 353.871094 84.347656 353.769531 84.140625 353.5625 84.039062 C 346.109375 79.378906 338.757812 74.515625 331.304688 70.066406 C 323.542969 65.40625 316.195312 60.335938 309.464844 54.226562 C 301.804688 47.292969 294.25 40.253906 286.589844 33.316406 C 278.101562 25.65625 270.234375 17.375 263.917969 7.851562 C 263.296875 6.921875 262.675781 6.09375 261.953125 5.265625 C 257.191406 -0.324219 253.773438 -0.21875 249.324219 5.472656 C 239.285156 18.515625 228.414062 30.9375 216.40625 42.117188 C 194.253906 62.820312 171.070312 82.382812 146.433594 100.082031 C 127.488281 113.644531 108.03125 126.273438 86.707031 135.898438 C 79.875 139.003906 72.9375 141.695312 66.003906 144.386719 C 62.070312 145.9375 58.34375 147.699219 55.132812 150.492188 C 54.511719 151.113281 53.996094 152.5625 54.203125 153.390625 C 54.511719 153.910156 55.753906 154.738281 56.582031 154.945312 Z M 557.792969 435.566406 C 556.964844 435.359375 556.03125 435.464844 555.203125 435.566406 C 549.71875 436.085938 544.230469 435.464844 538.847656 434.324219 C 522.496094 430.804688 506.65625 425.214844 492.0625 417.144531 C 474.566406 407.414062 458.007812 396.234375 443.515625 382.363281 C 437.199219 376.359375 430.78125 370.355469 424.261719 364.453125 C 407.179688 348.929688 390.929688 332.574219 377.785156 313.527344 C 376.542969 311.765625 374.988281 310.109375 373.332031 308.765625 C 371.054688 306.902344 368.261719 307.109375 366.191406 309.179688 C 364.949219 310.421875 364.015625 311.871094 362.980469 313.320312 C 353.769531 326.777344 343.105469 338.992188 331.824219 350.582031 C 294.558594 388.574219 249.738281 414.554688 199.949219 432.566406 C 197.050781 433.601562 194.046875 434.324219 191.253906 435.464844 C 189.492188 436.1875 187.628906 437.015625 186.179688 438.257812 C 183.179688 440.847656 183.699219 444.988281 187.214844 447.058594 C 189.390625 448.300781 191.875 448.609375 194.253906 448.09375 C 198.085938 447.265625 201.914062 446.332031 205.746094 445.195312 C 221.375 440.535156 235.972656 433.394531 250.464844 426.148438 C 290.210938 406.378906 323.4375 378.636719 351.285156 344.167969 C 357.082031 337.023438 362.464844 329.570312 368.054688 322.222656 C 368.46875 321.703125 368.984375 321.289062 369.710938 320.667969 C 370.539062 321.703125 371.46875 322.636719 372.089844 323.773438 C 381.71875 339.09375 393 352.964844 405.9375 365.695312 C 413.082031 372.734375 420.535156 379.566406 427.78125 386.710938 C 442.273438 400.890625 458.730469 412.589844 476.015625 423.144531 C 492.683594 433.394531 511.003906 439.292969 530.152344 442.8125 C 536.882812 444.054688 543.714844 444.367188 550.441406 443.332031 C 553.753906 442.8125 556.859375 441.882812 559.34375 439.398438 C 559.863281 438.878906 560.171875 437.742188 559.964844 437.015625 C 559.550781 436.292969 558.515625 435.773438 557.792969 435.566406 Z M 744.839844 234.648438 C 743.804688 234.339844 742.769531 234.234375 741.628906 234.027344 C 736.867188 233.40625 732.003906 233.097656 727.347656 232.269531 C 716.996094 230.507812 706.644531 228.230469 696.914062 224.089844 C 662.960938 209.601562 668.445312 212.601562 642.464844 195.210938 C 641.742188 194.695312 641.015625 194.175781 640.292969 193.761719 C 623.003906 182.996094 608.097656 169.539062 594.125 154.839844 C 591.125 151.632812 588.226562 148.320312 585.121094 145.320312 C 583.257812 143.457031 581.289062 141.695312 579.117188 140.246094 C 575.804688 138.074219 572.386719 138.28125 569.386719 140.765625 C 567.730469 142.109375 566.382812 143.972656 564.832031 145.527344 C 561.207031 149.355469 557.894531 153.496094 554.066406 157.015625 C 533.363281 176.683594 510.902344 194.28125 486.574219 209.289062 C 463.90625 223.261719 439.582031 232.683594 412.875 235.683594 C 411.113281 235.890625 409.355469 236.203125 407.800781 236.925781 C 405.421875 238.066406 404.179688 240.136719 404.488281 242.828125 C 404.800781 245.519531 406.351562 247.277344 408.941406 248.003906 C 410.804688 248.519531 412.875 248.519531 414.839844 248.417969 C 420.84375 248.3125 426.539062 247.070312 432.335938 245.621094 C 452.3125 240.34375 471.773438 233.40625 489.371094 222.332031 C 517.941406 204.527344 544.023438 183.410156 567.523438 159.292969 C 569.488281 157.222656 571.351562 155.152344 573.941406 152.460938 C 576.21875 155.253906 577.976562 157.53125 579.738281 159.707031 C 584.808594 165.710938 589.777344 171.921875 595.160156 177.613281 C 603.542969 186.515625 612.238281 195.210938 622.589844 202.042969 C 631.183594 207.738281 639.878906 213.328125 648.574219 218.914062 C 655.09375 223.054688 661.925781 226.472656 669.171875 229.164062 C 675.898438 231.648438 682.835938 234.027344 689.5625 236.511719 C 702.296875 241.171875 715.546875 242.828125 729.003906 242.515625 C 732.105469 242.414062 735.109375 242 738.109375 241.480469 C 739.972656 241.171875 741.941406 240.445312 743.699219 239.515625 C 744.632812 239.101562 745.253906 238.066406 745.875 237.238281 C 746.390625 236.410156 745.875 234.960938 744.839844 234.648438 Z M 408.214844 165.089844 C 410.390625 164.984375 412.5625 164.570312 414.632812 163.949219 C 415.460938 163.742188 416.1875 162.5 416.394531 161.570312 C 416.496094 161.050781 415.566406 160.015625 414.945312 159.707031 C 412.667969 158.773438 410.390625 158.050781 408.113281 157.429688 C 394.449219 154.011719 381.40625 148.835938 368.882812 142.421875 C 362.257812 139.003906 355.632812 135.589844 348.902344 132.277344 C 333.996094 124.824219 319.714844 116.230469 305.636719 107.226562 C 291.351562 98.117188 278.410156 87.246094 266.300781 75.34375 C 264.125 73.171875 261.953125 70.996094 259.570312 69.03125 C 254.1875 64.578125 251.085938 64.992188 246.945312 70.375 C 246.011719 71.617188 245.183594 72.859375 244.148438 74.101562 C 239.179688 79.898438 234.417969 86.109375 229.035156 91.492188 C 221.894531 98.53125 214.441406 105.464844 206.574219 111.675781 C 174.484375 137.140625 140.117188 158.980469 102.128906 174.714844 C 101.09375 175.128906 100.058594 175.542969 99.128906 176.0625 C 98.195312 176.578125 97.265625 177.199219 96.4375 177.925781 C 94.367188 179.683594 93.847656 182.167969 94.78125 184.445312 C 95.710938 186.828125 97.679688 187.757812 99.957031 187.757812 C 101.714844 187.757812 103.476562 187.449219 105.132812 187.035156 C 107.824219 186.207031 110.515625 185.171875 113.207031 184.136719 C 132.148438 176.371094 150.367188 167.261719 167.34375 155.773438 C 181.316406 146.351562 194.980469 136.3125 208.023438 125.546875 C 223.652344 112.710938 238.457031 98.945312 250.773438 82.898438 C 251.394531 82.070312 252.222656 81.347656 253.570312 79.898438 C 255.742188 82.382812 257.5 84.347656 259.15625 86.316406 C 269.820312 98.738281 281.515625 109.8125 295.179688 118.820312 C 317.4375 133.414062 340.726562 146.144531 365.464844 155.980469 C 370.746094 158.050781 376.128906 159.914062 381.613281 161.464844 C 390.308594 164.15625 399.210938 165.503906 408.214844 165.089844 Z M 487.507812 464.757812 C 485.023438 463.929688 482.433594 463.308594 479.847656 463 C 473.429688 462.273438 467.425781 460.308594 461.628906 457.824219 C 453.96875 454.40625 446.621094 450.472656 439.890625 445.503906 C 429.953125 438.257812 420.222656 430.804688 410.390625 423.351562 C 399.003906 414.660156 390.308594 403.789062 383.167969 391.574219 C 380.890625 387.640625 378.714844 383.5 376.4375 379.464844 C 375.921875 378.53125 375.402344 377.496094 374.886719 376.566406 C 374.472656 375.839844 374.058594 375.011719 373.539062 374.289062 C 370.640625 370.5625 366.191406 370.664062 363.808594 374.804688 C 361.015625 379.878906 357.910156 384.640625 353.976562 388.78125 C 348.386719 394.679688 342.796875 400.476562 336.792969 405.964844 C 321.574219 419.730469 304.601562 431.011719 287.003906 441.363281 C 276.03125 447.886719 264.644531 453.578125 252.535156 457.511719 C 250.878906 458.03125 249.117188 458.546875 247.667969 459.480469 C 246.011719 460.515625 244.355469 461.757812 243.113281 463.207031 C 240.527344 466.3125 241.664062 469.519531 245.597656 470.761719 C 248.910156 471.796875 252.121094 471.175781 255.328125 470.246094 C 262.882812 467.96875 270.234375 465.070312 277.167969 461.238281 C 310.085938 443.019531 340.207031 421.386719 364.015625 391.78125 C 364.84375 390.851562 365.878906 390.023438 367.019531 388.78125 C 368.261719 391.367188 369.296875 393.4375 370.433594 395.613281 C 377.472656 409.171875 385.960938 421.59375 397.761719 431.53125 C 409.664062 441.675781 422.292969 450.785156 435.75 458.546875 C 442.996094 462.6875 450.554688 466.105469 458.625 468.589844 C 466.285156 470.867188 474.050781 471.695312 482.019531 470.554688 C 483.988281 470.246094 485.851562 469.726562 487.714844 469.003906 C 488.4375 468.691406 489.265625 467.65625 489.164062 467.140625 C 488.957031 466.3125 488.230469 465.070312 487.507812 464.757812 Z M 69.003906 291.683594 C 76.148438 286.507812 83.082031 281.230469 90.121094 275.953125 C 99.023438 269.121094 107.203125 261.5625 114.757812 253.179688 C 116.308594 251.417969 118.070312 249.761719 120.140625 247.484375 C 121.796875 248.832031 122.832031 249.554688 123.761719 250.488281 C 131.320312 258.25 139.910156 264.667969 148.710938 270.878906 C 168.378906 284.644531 189.285156 296.238281 211.957031 304.3125 C 220.652344 307.417969 229.554688 309.800781 238.351562 312.285156 C 241.664062 313.214844 245.289062 313.527344 248.703125 313.835938 C 249.53125 313.941406 250.980469 313.320312 251.394531 312.59375 C 251.808594 311.765625 251.601562 310.421875 251.1875 309.488281 C 250.773438 308.558594 249.945312 307.625 249.117188 307.003906 C 247.359375 305.761719 245.597656 304.417969 243.632812 303.589844 C 240.214844 302.140625 236.695312 300.898438 233.175781 299.65625 C 203.984375 288.890625 176.453125 275.019531 152.023438 255.457031 C 146.328125 250.902344 140.945312 246.140625 135.355469 241.585938 C 132.976562 239.617188 130.699219 237.546875 128.109375 235.996094 C 122.625 232.683594 117.863281 232.992188 112.894531 237.03125 C 110.410156 239.101562 108.03125 241.480469 105.855469 243.964844 C 97.886719 252.765625 89.085938 260.632812 79.5625 267.773438 C 76.25 270.257812 72.9375 272.742188 69.625 275.332031 C 49.855469 290.339844 28.84375 303.382812 5.863281 313.214844 C 4.515625 313.835938 3.171875 314.5625 1.929688 315.492188 C 0.582031 316.425781 0.996094 318.496094 2.445312 319.324219 C 4.722656 320.566406 7.105469 320.359375 9.484375 320.046875 C 16.9375 318.910156 23.976562 316.632812 30.808594 313.527344 C 44.058594 307.210938 57.101562 300.378906 69.003906 291.683594 Z M 358.425781 195.523438 C 360.808594 195.316406 363.1875 194.695312 365.363281 193.867188 C 367.328125 193.140625 368.570312 191.070312 368.054688 189.828125 C 367.328125 188.171875 365.777344 188.070312 364.222656 187.863281 C 364.015625 187.863281 363.808594 187.863281 363.601562 187.757812 C 354.390625 186.722656 345.589844 184.03125 337.207031 180.097656 C 320.4375 172.335938 304.394531 163.433594 289.488281 152.460938 C 280.273438 145.628906 271.578125 138.28125 263.503906 130.308594 C 261.640625 128.445312 259.675781 126.6875 257.5 125.339844 C 255.015625 123.683594 252.324219 124.304688 250.464844 126.6875 C 249.222656 128.238281 248.394531 130 247.460938 131.757812 C 243.527344 138.902344 238.664062 145.421875 232.761719 151.113281 C 226.242188 157.429688 219.304688 163.019531 211.957031 168.195312 C 193.738281 181.03125 174.277344 191.382812 153.160156 198.730469 C 151.296875 199.351562 149.539062 200.285156 147.882812 201.421875 C 146.226562 202.5625 145.085938 204.425781 145.605469 206.496094 C 146.121094 208.875 147.882812 210.222656 150.160156 210.636719 C 151.402344 210.84375 152.746094 210.738281 153.988281 210.53125 C 155.851562 210.117188 157.820312 209.394531 159.578125 208.667969 C 186.59375 198.421875 210.507812 183.203125 231.933594 163.949219 C 239.492188 157.222656 246.324219 149.769531 251.910156 141.28125 C 252.429688 140.453125 253.257812 139.625 254.292969 138.28125 C 255.328125 139.417969 255.742188 139.9375 256.15625 140.453125 C 268.578125 156.496094 284.414062 168.609375 301.804688 178.648438 C 312.882812 185.066406 324.578125 189.933594 336.894531 193.347656 C 343.933594 195.316406 351.179688 196.144531 358.425781 195.523438 Z M 658.613281 268.5 C 655.820312 266.738281 653.128906 264.773438 650.230469 263.425781 C 636.875 257.007812 625.074219 248.417969 613.378906 239.410156 C 602.507812 231.027344 592.574219 221.917969 584.601562 210.738281 C 583.671875 209.496094 582.738281 208.359375 581.703125 207.21875 C 580.875 206.183594 579.945312 205.253906 579.011719 204.425781 C 575.390625 201.007812 570.523438 201.320312 567.9375 205.769531 C 566.28125 208.566406 564.210938 211.257812 562.140625 213.742188 C 555.410156 221.605469 547.648438 228.4375 538.953125 234.027344 C 528.085938 240.964844 517.113281 247.898438 505.933594 254.316406 C 493.199219 261.667969 479.742188 267.671875 465.25 270.984375 C 463.59375 271.398438 461.835938 272.121094 460.492188 273.15625 C 456.972656 275.847656 457.695312 281.128906 461.835938 282.679688 C 463.386719 283.199219 465.355469 283.40625 467.011719 283.199219 C 470.632812 282.578125 474.359375 281.644531 477.878906 280.507812 C 487.300781 277.503906 496.304688 273.363281 504.898438 268.601562 C 520.320312 260.113281 534.707031 250.175781 548.785156 239.515625 C 555.410156 234.441406 561.519531 228.75 567.109375 222.539062 C 568.558594 220.984375 570.109375 219.433594 572.078125 217.257812 C 573.941406 219.640625 575.285156 221.398438 576.527344 223.160156 C 581.289062 229.785156 586.363281 236.097656 592.882812 241.066406 C 601.265625 247.382812 609.753906 253.695312 618.449219 259.597656 C 629.941406 267.359375 642.984375 270.984375 656.234375 274.296875 C 657.269531 274.503906 658.40625 274.503906 659.441406 274.398438 C 661.203125 274.296875 662.132812 272.328125 661.097656 270.984375 C 660.269531 269.949219 659.441406 269.121094 658.613281 268.5 Z M 116.929688 297.066406 C 118.070312 296.136719 119.3125 295.410156 120.65625 294.480469 C 122.003906 295.722656 123.140625 296.757812 124.175781 297.894531 C 129.765625 303.796875 136.183594 308.867188 142.914062 313.421875 C 158.234375 323.878906 175.210938 331.019531 192.496094 337.542969 C 193.738281 337.957031 194.980469 338.371094 196.222656 338.679688 C 202.847656 340.542969 209.574219 340.234375 216.925781 340.027344 C 216.40625 338.472656 216.304688 337.023438 215.578125 336.300781 C 214.542969 335.265625 213.09375 334.539062 211.644531 334.023438 C 197.050781 328.535156 182.871094 322.117188 168.894531 315.390625 C 153.988281 308.144531 140.222656 299.242188 128.421875 287.542969 C 127.179688 286.300781 125.9375 285.058594 124.589844 284.023438 C 121.691406 281.851562 119.105469 281.746094 116.101562 283.714844 C 114.859375 284.542969 113.722656 285.578125 112.480469 286.613281 C 107.304688 291.0625 102.128906 295.410156 96.953125 299.863281 C 75.941406 318.289062 53.0625 334.125 28.636719 347.582031 C 27.289062 348.308594 26.046875 349.136719 24.804688 350.167969 C 24.390625 350.480469 24.082031 351.515625 24.289062 351.929688 C 24.597656 352.652344 25.425781 353.585938 26.046875 353.585938 C 28.429688 353.585938 31.015625 353.6875 33.191406 352.859375 C 38.367188 350.996094 43.542969 349.03125 48.300781 346.445312 C 67.453125 336.09375 85.773438 324.5 102.128906 310.109375 C 106.890625 305.660156 111.964844 301.3125 116.929688 297.066406 Z M 408.007812 477.90625 C 404.800781 476.042969 401.382812 474.386719 398.382812 472.210938 C 384.824219 462.6875 373.023438 451.300781 363.1875 437.949219 C 362.257812 436.707031 361.429688 435.464844 360.394531 434.324219 C 357.496094 431.117188 353.5625 431.21875 350.664062 434.324219 C 349.835938 435.257812 349.214844 436.5 348.386719 437.535156 C 344.96875 441.570312 341.761719 445.710938 338.035156 449.4375 C 330.269531 457.304688 321.058594 463.207031 311.121094 468.070312 C 306.566406 470.246094 301.910156 472.210938 297.355469 474.386719 C 295.386719 475.316406 293.421875 476.351562 291.660156 477.59375 C 288.867188 479.664062 289.382812 483.496094 292.59375 485.152344 C 294.25 485.980469 295.90625 486.394531 297.664062 485.773438 C 299.320312 485.253906 300.976562 484.738281 302.632812 484.011719 C 321.160156 475.628906 337.828125 464.449219 351.59375 449.230469 C 352.628906 448.09375 353.769531 447.160156 354.804688 446.125 C 355.21875 446.4375 355.425781 446.4375 355.527344 446.644531 C 356.769531 448.09375 358.117188 449.644531 359.359375 451.199219 C 369.089844 462.6875 380.164062 472.523438 393.308594 479.976562 C 398.691406 483.082031 404.488281 485.046875 410.699219 485.460938 C 411.941406 485.566406 413.183594 485.152344 415.046875 484.945312 C 414.53125 483.496094 414.425781 481.941406 413.597656 481.320312 C 411.941406 479.976562 409.976562 479.042969 408.007812 477.90625 Z M 614.929688 297.378906 C 608.925781 293.238281 602.921875 289.40625 596.917969 285.265625 C 588.535156 279.574219 580.566406 273.46875 575.492188 264.359375 C 575.390625 264.152344 575.285156 264.046875 575.078125 263.839844 C 572.492188 260.734375 569.179688 260.21875 565.867188 262.597656 C 564.625 263.425781 563.484375 264.566406 562.347656 265.601562 C 552.824219 275.019531 542.367188 283.402344 531.292969 290.753906 C 526.53125 293.859375 521.976562 297.273438 517.320312 300.585938 C 516.59375 301.105469 515.871094 301.621094 515.25 302.140625 C 513.695312 303.484375 514.007812 305.660156 516.078125 306.28125 C 517.527344 306.695312 519.078125 307.003906 520.527344 306.695312 C 522.699219 306.28125 524.769531 305.660156 526.738281 304.726562 C 540.195312 298.308594 553.03125 290.753906 564.210938 280.714844 C 565.660156 279.367188 567.109375 278.125 569.074219 276.261719 C 570.316406 277.710938 571.144531 278.746094 572.078125 279.679688 C 574.976562 282.574219 577.667969 285.992188 580.980469 288.371094 C 588.640625 293.859375 596.503906 299.035156 604.371094 304.105469 C 606.753906 305.660156 609.445312 306.589844 612.136719 307.625 C 613.792969 308.351562 615.550781 308.351562 617.207031 307.625 C 620.003906 306.488281 621.039062 303.589844 619.277344 301.207031 C 618.140625 299.757812 616.484375 298.414062 614.929688 297.378906 Z M 133.804688 347.6875 C 143.742188 353.6875 153.679688 359.691406 164.03125 365.074219 C 169.621094 367.972656 175.832031 369.734375 181.835938 371.804688 C 184.316406 372.632812 187.007812 373.253906 189.597656 372.011719 C 190.734375 371.492188 191.976562 370.5625 192.390625 369.527344 C 193.117188 367.972656 192.082031 366.421875 190.632812 365.695312 C 188.5625 364.558594 186.386719 363.523438 184.109375 362.695312 C 177.902344 360.519531 171.691406 358.449219 165.894531 355.136719 C 157.613281 350.273438 149.226562 345.410156 141.050781 340.335938 C 138.253906 338.679688 135.667969 336.507812 133.078125 334.644531 C 131.835938 333.710938 130.699219 332.675781 129.457031 331.746094 C 125.417969 328.847656 123.039062 329.054688 119.621094 332.367188 C 118.792969 333.089844 118.171875 334.023438 117.34375 334.746094 C 104.511719 348.929688 90.535156 361.867188 75.007812 373.046875 C 71.800781 375.324219 68.589844 377.601562 65.382812 379.980469 C 64.65625 380.5 63.933594 381.121094 63.621094 381.84375 C 63.414062 382.257812 63.726562 383.398438 64.035156 383.5 C 64.96875 383.914062 66.210938 384.433594 67.140625 384.226562 C 69.832031 383.398438 72.628906 382.570312 75.113281 381.222656 C 84.53125 376.253906 93.433594 370.355469 101.40625 363.109375 C 109.167969 356.070312 116.722656 348.722656 124.902344 341.0625 C 127.800781 343.234375 130.59375 345.824219 133.804688 347.6875 Z M 304.1875 208.046875 C 299.632812 205.769531 295.078125 203.699219 290.730469 201.113281 C 284.726562 197.59375 278.722656 193.867188 272.925781 189.828125 C 268.785156 187.035156 264.953125 183.617188 261.019531 180.511719 C 259.984375 179.683594 259.15625 178.648438 258.019531 177.925781 C 254.601562 175.648438 251.292969 176.269531 249.015625 179.683594 C 247.980469 181.132812 247.253906 182.789062 246.117188 184.03125 C 235.558594 195.9375 224.066406 206.703125 209.265625 213.222656 C 207.816406 213.84375 206.46875 214.464844 205.226562 215.292969 C 204.191406 216.015625 203.261719 217.050781 202.535156 218.085938 C 201.191406 220.15625 202.535156 222.640625 204.917969 222.953125 C 207.503906 223.367188 209.679688 222.332031 211.851562 221.296875 C 220.652344 216.742188 228.828125 211.257812 236.179688 204.527344 C 239.59375 201.421875 242.90625 198.214844 246.324219 195.109375 C 248.082031 193.554688 250.050781 192.105469 251.808594 190.761719 C 259.570312 195.9375 266.507812 200.492188 273.441406 205.046875 C 281.515625 210.222656 290.523438 213.015625 299.839844 214.671875 C 301.597656 214.980469 303.359375 215.085938 305.117188 214.980469 C 307.5 214.980469 308.949219 214.152344 309.363281 212.601562 C 309.777344 211.050781 308.84375 209.703125 306.671875 208.667969 C 305.84375 208.566406 305.015625 208.359375 304.1875 208.046875 Z M 304.1875 208.046875 " fill-opacity="1" fill-rule="nonzero"/></g></g></g></g></svg>