<svg xmlns="http://www.w3.org/2000/svg" xmlns:xlink="http://www.w3.org/1999/xlink" width="1600" zoomAndPan="magnify" viewBox="0 0 1200 1199.999942" height="1600" preserveAspectRatio="xMidYMid meet" version="1.0"><defs><filter x="0%" y="0%" width="100%" height="100%" id="829d732efd"><feColorMatrix values="0 0 0 0 1 0 0 0 0 1 0 0 0 0 1 0 0 0 1 0" color-interpolation-filters="sRGB"/></filter><mask id="be9dd46341"><g filter="url(#829d732efd)"><rect x="-120" width="1440" fill="#000000" y="-119.999994" height="1439.999931" fill-opacity="0.47"/></g></mask><clipPath id="391297e1e1"><path d="M 2 3 L 897.972656 3 L 897.972656 426 L 2 426 Z M 2 3 " clip-rule="nonzero"/></clipPath><clipPath id="330b6b2c8f"><path d="M 0.222656 0.398438 L 897.972656 0.398438 L 897.972656 427.636719 L 0.222656 427.636719 Z M 0.222656 0.398438 " clip-rule="nonzero"/></clipPath><clipPath id="a9a9a31911"><rect x="0" width="1049" y="0" height="429"/></clipPath></defs><g mask="url(#be9dd46341)"><g transform="matrix(1, 0, 0, 1, 151, 386)"><g clip-path="url(#a9a9a31911)"><g clip-path="url(#391297e1e1)"><path fill="#ffb803" d="M 1326.644531 377.34375 C 1326.644531 403.925781 1305.113281 425.457031 1278.53125 425.457031 L 313.085938 425.457031 C 286.507812 425.457031 264.976562 403.925781 264.976562 377.34375 C 264.976562 350.761719 286.507812 329.230469 313.085938 329.230469 L 415.425781 329.230469 C 433.769531 329.230469 448.652344 314.34375 448.652344 296.003906 C 448.652344 277.660156 433.769531 262.511719 415.425781 262.511719 L 50.992188 262.511719 C 24.410156 262.246094 2.878906 240.714844 2.878906 214.132812 C 2.878906 187.550781 24.410156 166.019531 50.992188 166.019531 L 722.710938 166.019531 C 741.050781 166.019531 755.9375 151.132812 755.9375 132.792969 C 755.9375 114.449219 741.050781 99.300781 722.710938 99.300781 L 606.015625 99.300781 C 579.4375 99.300781 557.90625 77.769531 557.90625 51.1875 C 557.90625 24.605469 579.4375 3.074219 606.015625 3.074219 L 1093.523438 3.074219 C 1120.105469 3.074219 1141.636719 24.605469 1141.636719 51.1875 C 1141.636719 77.769531 1120.105469 99.300781 1093.523438 99.300781 L 982.414062 99.300781 C 964.070312 99.300781 949.1875 114.183594 949.1875 132.792969 C 949.1875 151.398438 964.070312 166.019531 982.414062 166.019531 L 1093.523438 166.019531 C 1120.105469 166.019531 1141.636719 187.550781 1141.636719 214.132812 C 1141.636719 240.714844 1120.105469 262.246094 1093.523438 262.246094 L 675.128906 262.246094 C 656.789062 262.246094 641.636719 277.128906 641.636719 295.738281 C 641.636719 314.078125 656.523438 328.964844 675.128906 328.964844 L 1278.53125 328.964844 C 1305.113281 329.230469 1326.644531 350.761719 1326.644531 377.34375 Z M 1326.644531 377.34375 " fill-opacity="1" fill-rule="nonzero"/></g><g clip-path="url(#330b6b2c8f)"><path fill="#ffb803" d="M 1278.53125 326.304688 L 675.128906 326.304688 C 658.117188 326.304688 644.5625 312.484375 644.5625 295.738281 C 644.5625 278.992188 658.382812 265.167969 675.128906 265.167969 L 1093.523438 265.167969 C 1121.703125 265.167969 1144.296875 242.308594 1144.296875 214.398438 C 1144.296875 186.488281 1121.433594 163.625 1093.523438 163.625 L 982.414062 163.625 C 965.667969 163.625 951.84375 149.804688 951.84375 133.058594 C 951.84375 116.3125 965.667969 102.488281 982.414062 102.488281 L 1093.523438 102.488281 C 1121.703125 102.488281 1144.296875 79.628906 1144.296875 51.71875 C 1144.296875 23.808594 1121.433594 0.414062 1093.523438 0.414062 L 606.015625 0.414062 C 578.105469 0.414062 555.246094 23.277344 555.246094 51.1875 C 555.246094 79.097656 578.105469 101.957031 606.015625 101.957031 L 722.710938 101.957031 C 739.457031 101.957031 753.28125 115.78125 753.28125 132.527344 C 753.28125 149.273438 739.457031 163.09375 722.710938 163.09375 L 50.992188 163.09375 C 23.082031 163.359375 0.222656 186.222656 0.222656 214.132812 C 0.222656 242.042969 23.082031 264.902344 50.992188 264.902344 L 415.425781 264.902344 C 432.4375 264.902344 445.996094 278.726562 445.996094 295.472656 C 445.996094 312.484375 432.171875 326.039062 415.425781 326.039062 L 313.089844 326.039062 C 284.910156 326.039062 262.316406 348.902344 262.316406 376.8125 C 262.316406 404.722656 285.175781 427.582031 313.089844 427.582031 L 1278.265625 427.582031 C 1306.445312 427.582031 1329.039062 404.722656 1329.304688 376.8125 C 1329.304688 349.167969 1306.445312 326.304688 1278.53125 326.304688 Z M 1278.53125 422.53125 L 313.085938 422.53125 C 288.101562 422.53125 267.632812 402.0625 267.632812 377.078125 C 267.632812 352.089844 288.101562 331.621094 313.085938 331.621094 L 415.425781 331.621094 C 435.363281 331.621094 451.578125 315.40625 451.578125 295.472656 C 451.578125 275.535156 435.363281 259.320312 415.425781 259.320312 L 50.992188 259.320312 C 26.007812 259.320312 5.539062 238.851562 5.539062 213.867188 C 5.539062 188.878906 26.007812 168.410156 50.992188 168.410156 L 722.710938 168.410156 C 742.648438 168.410156 758.863281 152.195312 758.863281 132.261719 C 758.863281 112.324219 742.648438 96.109375 722.710938 96.109375 L 606.015625 96.109375 C 581.03125 96.109375 560.5625 75.640625 560.5625 50.65625 C 560.5625 25.667969 581.03125 5.730469 606.015625 5.730469 L 1093.523438 5.730469 C 1118.511719 5.730469 1138.980469 26.199219 1138.980469 51.1875 C 1138.980469 76.171875 1118.511719 96.640625 1093.523438 96.640625 L 982.414062 96.640625 C 962.476562 96.640625 946.261719 112.855469 946.261719 132.792969 C 946.261719 152.726562 962.476562 168.941406 982.414062 168.941406 L 1093.523438 168.941406 C 1118.511719 168.941406 1138.980469 189.410156 1138.980469 214.398438 C 1138.980469 239.382812 1118.511719 259.851562 1093.523438 259.851562 L 675.128906 259.851562 C 655.195312 259.851562 638.980469 276.066406 638.980469 296.003906 C 638.980469 315.9375 655.195312 332.152344 675.128906 332.152344 L 1278.53125 332.152344 C 1303.519531 332.152344 1323.988281 352.621094 1323.988281 377.609375 C 1323.988281 402.59375 1303.519531 422.53125 1278.53125 422.53125 Z M 1278.53125 422.53125 " fill-opacity="1" fill-rule="nonzero"/></g></g></g></g></svg>